<?xml version="1.0" encoding="UTF-8"?>
<svg id="Layer_2" data-name="Layer 2" xmlns="http://www.w3.org/2000/svg" xmlns:xlink="http://www.w3.org/1999/xlink" viewBox="0 0 1549.97 610.68">
  <defs>
    <style>
      .cls-1 {
        fill: none;
      }

      .cls-2 {
        fill: url(#linear-gradient-2);
      }

      .cls-3 {
        fill: url(#linear-gradient);
      }

      .cls-4 {
        clip-path: url(#clippath-10);
      }

      .cls-5 {
        clip-path: url(#clippath-1);
      }

      .cls-6 {
        clip-path: url(#clippath-3);
      }

      .cls-7 {
        clip-path: url(#clippath-4);
      }

      .cls-8 {
        clip-path: url(#clippath-2);
      }

      .cls-9 {
        clip-path: url(#clippath-7);
      }

      .cls-10 {
        clip-path: url(#clippath-6);
      }

      .cls-11 {
        clip-path: url(#clippath-9);
      }

      .cls-12 {
        clip-path: url(#clippath-8);
      }

      .cls-13 {
        clip-path: url(#clippath-5);
      }

      .cls-14 {
        fill: #fff;
      }

      .cls-15 {
        fill: #3ebf8a;
      }

      .cls-16 {
        clip-path: url(#clippath);
      }
    </style>
    <clipPath id="clippath">
      <rect class="cls-1" x="576.19" y="97.25" width="953.33" height="298.67"/>
    </clipPath>
    <clipPath id="clippath-1">
      <rect class="cls-1" x="574.83" y="366.59" width="975.14" height="148.03"/>
    </clipPath>
    <clipPath id="clippath-2">
      <rect class="cls-1" width="525.41" height="610.68"/>
    </clipPath>
    <clipPath id="clippath-3">
      <rect class="cls-1" x="1.34" y=".67" width="523.27" height="609.12"/>
    </clipPath>
    <clipPath id="clippath-4">
      <polygon class="cls-1" points="262.97 .89 524.6 153.11 524.6 457.56 262.97 609.78 1.34 457.56 1.34 153.11 262.97 .89"/>
    </clipPath>
    <clipPath id="clippath-5">
      <rect class="cls-1" x="1.15" width="524.26" height="610.68"/>
    </clipPath>
    <clipPath id="clippath-6">
      <rect class="cls-1" x="1.34" y=".89" width="523.27" height="608.89"/>
    </clipPath>
    <clipPath id="clippath-7">
      <polygon class="cls-1" points="262.97 .89 524.6 153.11 524.6 457.56 262.97 609.78 1.34 457.56 1.34 153.11 262.97 .89"/>
    </clipPath>
    <linearGradient id="linear-gradient" x1="-1269.14" y1="-1243.4" x2="-1011.72" y2="-1243.4" gradientTransform="translate(-2678.05 -2392.12) rotate(-90) scale(2.37 -2.37)" gradientUnits="userSpaceOnUse">
      <stop offset="0" stop-color="#5dd1e6"/>
      <stop offset="0" stop-color="#5dd1e6"/>
      <stop offset=".02" stop-color="#5dd1e5"/>
      <stop offset=".02" stop-color="#5cd1e4"/>
      <stop offset=".03" stop-color="#5cd1e3"/>
      <stop offset=".04" stop-color="#5cd0e3"/>
      <stop offset=".05" stop-color="#5cd0e2"/>
      <stop offset=".05" stop-color="#5bd0e1"/>
      <stop offset=".06" stop-color="#5bd0e1"/>
      <stop offset=".07" stop-color="#5bd0e0"/>
      <stop offset=".08" stop-color="#5bd0df"/>
      <stop offset=".09" stop-color="#5ad0de"/>
      <stop offset=".09" stop-color="#5acfde"/>
      <stop offset=".1" stop-color="#5acfdd"/>
      <stop offset=".11" stop-color="#5acfdc"/>
      <stop offset=".12" stop-color="#59cfdc"/>
      <stop offset=".12" stop-color="#59cfdb"/>
      <stop offset=".13" stop-color="#59cfda"/>
      <stop offset=".14" stop-color="#59cfd9"/>
      <stop offset=".15" stop-color="#59ced9"/>
      <stop offset=".16" stop-color="#58ced8"/>
      <stop offset=".16" stop-color="#58ced7"/>
      <stop offset=".17" stop-color="#58ced7"/>
      <stop offset=".18" stop-color="#58ced6"/>
      <stop offset=".19" stop-color="#57ced5"/>
      <stop offset=".2" stop-color="#57ced4"/>
      <stop offset=".2" stop-color="#57cdd4"/>
      <stop offset=".21" stop-color="#57cdd3"/>
      <stop offset=".22" stop-color="#56cdd2"/>
      <stop offset=".23" stop-color="#56cdd2"/>
      <stop offset=".23" stop-color="#56cdd1"/>
      <stop offset=".24" stop-color="#56cdd0"/>
      <stop offset=".25" stop-color="#55cdcf"/>
      <stop offset=".26" stop-color="#55cccf"/>
      <stop offset=".27" stop-color="#55ccce"/>
      <stop offset=".27" stop-color="#55cccd"/>
      <stop offset=".28" stop-color="#54cccc"/>
      <stop offset=".29" stop-color="#54cccc"/>
      <stop offset=".3" stop-color="#54cccb"/>
      <stop offset=".3" stop-color="#54ccca"/>
      <stop offset=".31" stop-color="#53cbca"/>
      <stop offset=".32" stop-color="#53cbc9"/>
      <stop offset=".33" stop-color="#53cbc8"/>
      <stop offset=".34" stop-color="#53cbc7"/>
      <stop offset=".34" stop-color="#52cbc7"/>
      <stop offset=".35" stop-color="#52cbc6"/>
      <stop offset=".36" stop-color="#52cbc5"/>
      <stop offset=".37" stop-color="#52cac5"/>
      <stop offset=".38" stop-color="#51cac4"/>
      <stop offset=".38" stop-color="#51cac3"/>
      <stop offset=".39" stop-color="#51cac2"/>
      <stop offset=".4" stop-color="#51cac2"/>
      <stop offset=".41" stop-color="#51cac1"/>
      <stop offset=".41" stop-color="#50cac0"/>
      <stop offset=".42" stop-color="#50c9c0"/>
      <stop offset=".43" stop-color="#50c9bf"/>
      <stop offset=".44" stop-color="#50c9be"/>
      <stop offset=".45" stop-color="#4fc9bd"/>
      <stop offset=".45" stop-color="#4fc9bd"/>
      <stop offset=".46" stop-color="#4fc9bc"/>
      <stop offset=".47" stop-color="#4fc9bb"/>
      <stop offset=".48" stop-color="#4ec8bb"/>
      <stop offset=".48" stop-color="#4ec8ba"/>
      <stop offset=".49" stop-color="#4ec8b9"/>
      <stop offset=".5" stop-color="#4ec8b8"/>
      <stop offset=".51" stop-color="#4dc8b8"/>
      <stop offset=".52" stop-color="#4dc8b7"/>
      <stop offset=".52" stop-color="#4dc8b6"/>
      <stop offset=".53" stop-color="#4dc8b5"/>
      <stop offset=".54" stop-color="#4cc7b5"/>
      <stop offset=".55" stop-color="#4cc7b4"/>
      <stop offset=".55" stop-color="#4cc7b3"/>
      <stop offset=".56" stop-color="#4cc7b3"/>
      <stop offset=".57" stop-color="#4bc7b2"/>
      <stop offset=".58" stop-color="#4bc7b1"/>
      <stop offset=".59" stop-color="#4bc7b0"/>
      <stop offset=".59" stop-color="#4bc6b0"/>
      <stop offset=".6" stop-color="#4ac6af"/>
      <stop offset=".61" stop-color="#4ac6ae"/>
      <stop offset=".62" stop-color="#4ac6ae"/>
      <stop offset=".62" stop-color="#4ac6ad"/>
      <stop offset=".63" stop-color="#49c6ac"/>
      <stop offset=".64" stop-color="#49c6ab"/>
      <stop offset=".65" stop-color="#49c5ab"/>
      <stop offset=".66" stop-color="#49c5aa"/>
      <stop offset=".66" stop-color="#49c5a9"/>
      <stop offset=".67" stop-color="#48c5a9"/>
      <stop offset=".68" stop-color="#48c5a8"/>
      <stop offset=".69" stop-color="#48c5a7"/>
      <stop offset=".7" stop-color="#48c5a6"/>
      <stop offset=".7" stop-color="#47c4a6"/>
      <stop offset=".71" stop-color="#47c4a5"/>
      <stop offset=".72" stop-color="#47c4a4"/>
      <stop offset=".73" stop-color="#47c4a4"/>
      <stop offset=".73" stop-color="#46c4a3"/>
      <stop offset=".74" stop-color="#46c4a2"/>
      <stop offset=".75" stop-color="#46c4a1"/>
      <stop offset=".76" stop-color="#46c3a1"/>
      <stop offset=".77" stop-color="#45c3a0"/>
      <stop offset=".77" stop-color="#45c39f"/>
      <stop offset=".78" stop-color="#45c39e"/>
      <stop offset=".79" stop-color="#45c39e"/>
      <stop offset=".8" stop-color="#44c39d"/>
      <stop offset=".8" stop-color="#44c39c"/>
      <stop offset=".81" stop-color="#44c29c"/>
      <stop offset=".82" stop-color="#44c29b"/>
      <stop offset=".83" stop-color="#43c29a"/>
      <stop offset=".84" stop-color="#43c299"/>
      <stop offset=".84" stop-color="#43c299"/>
      <stop offset=".85" stop-color="#43c298"/>
      <stop offset=".86" stop-color="#42c297"/>
      <stop offset=".87" stop-color="#42c197"/>
      <stop offset=".88" stop-color="#42c196"/>
      <stop offset=".88" stop-color="#42c195"/>
      <stop offset=".89" stop-color="#42c194"/>
      <stop offset=".9" stop-color="#41c194"/>
      <stop offset=".91" stop-color="#41c193"/>
      <stop offset=".91" stop-color="#41c192"/>
      <stop offset=".92" stop-color="#41c092"/>
      <stop offset=".93" stop-color="#40c091"/>
      <stop offset=".94" stop-color="#40c090"/>
      <stop offset=".95" stop-color="#40c08f"/>
      <stop offset=".95" stop-color="#40c08f"/>
      <stop offset=".96" stop-color="#3fc08e"/>
      <stop offset=".97" stop-color="#3fc08d"/>
      <stop offset=".98" stop-color="#3fbf8d"/>
      <stop offset=".98" stop-color="#3fbf8c"/>
      <stop offset=".99" stop-color="#3ebf8b"/>
      <stop offset="1" stop-color="#3ebf8a"/>
    </linearGradient>
    <clipPath id="clippath-8">
      <rect class="cls-1" x="156.79" y="180.9" width="212.51" height="248.88"/>
    </clipPath>
    <clipPath id="clippath-9">
      <path class="cls-1" d="M287.88,305.36c0,.44-.05.88-.13,1.31s-.22.86-.38,1.26c-.17.41-.38.8-.63,1.17-.24.37-.53.71-.84,1.02-.32.32-.65.59-1.02.84-.37.25-.76.45-1.17.63-.41.17-.83.3-1.26.38-.44.09-.87.13-1.32.13s-.88-.04-1.31-.13c-.43-.09-.86-.22-1.26-.39-.41-.17-.8-.38-1.17-.62-.37-.25-.71-.53-1.02-.84-.31-.31-.59-.65-.84-1.02-.25-.37-.45-.76-.62-1.17-.17-.41-.3-.83-.38-1.26-.09-.43-.13-.87-.13-1.31s.05-.88.13-1.31c.09-.44.22-.86.38-1.26.17-.41.38-.8.63-1.17.25-.37.53-.71.84-1.02.31-.32.65-.59,1.02-.84.37-.25.76-.45,1.17-.63.41-.17.83-.29,1.26-.38.43-.09.87-.13,1.31-.13s.88.05,1.31.13c.44.09.86.22,1.26.38.41.17.8.38,1.17.63.36.24.71.53,1.02.84.32.32.59.65.84,1.02.24.37.45.76.62,1.17.17.41.3.83.38,1.26.09.43.13.87.13,1.31ZM267.68,312.54c-.42,0-.83.04-1.24.12-.41.08-.8.2-1.18.36-.38.16-.75.36-1.09.59-.35.23-.67.49-.96.78-.29.3-.56.62-.79.96-.23.35-.42.71-.59,1.09-.16.38-.27.78-.36,1.19-.08.41-.12.82-.12,1.23s.04.83.12,1.23.2.8.36,1.18c.16.39.36.75.59,1.09.23.35.5.67.79.96.3.29.62.55.96.78.35.23.71.42,1.09.59.39.16.78.27,1.19.36.41.08.82.12,1.23.12.42,0,.83-.04,1.23-.12.41-.08.81-.2,1.19-.36.38-.16.75-.36,1.09-.59.35-.23.67-.5.96-.79.29-.29.55-.61.78-.96.23-.35.42-.71.58-1.09.16-.39.27-.78.36-1.19.08-.41.12-.82.12-1.23s-.04-.82-.12-1.23c-.08-.41-.2-.8-.36-1.18-.16-.38-.35-.74-.58-1.09-.23-.35-.49-.66-.78-.96-.29-.29-.61-.55-.95-.78-.34-.23-.71-.43-1.09-.59-.38-.16-.77-.28-1.18-.36s-.81-.13-1.23-.13l-.02.03ZM254.21,326.43c-.39,0-.77.04-1.15.11-.38.07-.75.18-1.1.33-.36.15-.7.33-1.02.54-.32.21-.62.46-.89.73-.27.27-.52.57-.73.9-.22.32-.4.66-.55,1.02-.15.36-.26.72-.33,1.11-.08.38-.12.76-.12,1.15s.04.77.12,1.15c.07.38.18.75.33,1.1.15.36.33.7.54,1.02.22.32.46.62.73.89.27.27.57.52.89.73.32.22.66.4,1.02.54.36.15.72.26,1.1.34.38.07.77.11,1.15.11s.77-.04,1.15-.11c.38-.08.75-.19,1.11-.34.36-.15.7-.33,1.02-.54.32-.22.62-.46.9-.73s.52-.57.73-.9c.21-.32.4-.66.54-1.02.15-.36.26-.73.34-1.11.07-.38.11-.77.11-1.15s-.04-.77-.11-1.15c-.08-.38-.18-.75-.33-1.11s-.33-.7-.54-1.02c-.22-.32-.46-.63-.73-.9-.27-.27-.57-.52-.89-.73-.32-.22-.67-.4-1.02-.55-.36-.15-.73-.26-1.11-.34-.38-.08-.77-.11-1.15-.11v.03ZM240.77,340.28c-.36,0-.72.03-1.07.1-.35.07-.69.18-1.03.31-.33.14-.65.31-.95.5-.3.2-.58.43-.83.68-.25.26-.48.53-.68.83-.2.3-.37.62-.5.95-.14.33-.24.67-.32,1.02-.07.36-.1.71-.1,1.07s.04.72.1,1.07c.07.36.18.7.32,1.03.14.33.31.65.5.95.2.3.43.58.68.83.25.26.53.48.83.68.3.2.61.37.95.51.33.14.68.24,1.03.31.35.07.71.1,1.07.1s.72-.04,1.07-.1c.35-.07.69-.18,1.03-.31.33-.14.64-.31.95-.51.3-.2.57-.42.83-.68.25-.25.48-.53.68-.83.2-.3.37-.61.5-.95.14-.33.24-.67.31-1.03.07-.35.11-.71.11-1.07s-.04-.71-.11-1.07c-.07-.35-.17-.69-.31-1.02-.14-.33-.31-.65-.5-.95-.2-.3-.43-.57-.68-.83-.26-.25-.53-.48-.83-.68-.3-.2-.62-.36-.95-.5-.33-.14-.68-.24-1.03-.31-.35-.07-.71-.1-1.07-.1ZM227.31,354.17c-.33,0-.66.03-.98.09-.33.07-.64.16-.95.29-.31.13-.59.28-.87.46-.27.18-.53.4-.77.63-.23.23-.44.49-.63.77-.18.27-.34.56-.47.87-.13.31-.22.62-.29.95-.06.33-.09.65-.09.99s.03.66.09.99c.07.32.16.64.29.95.13.31.28.59.47.87.18.28.39.53.63.77.23.23.49.45.77.63.27.18.56.34.87.46.31.13.62.23.95.29.32.06.65.09.98.09s.66-.03.99-.09.64-.16.95-.29c.31-.13.59-.28.87-.46.27-.18.53-.4.76-.63.23-.23.45-.49.63-.77.18-.27.34-.56.46-.87.13-.31.23-.62.29-.95.06-.33.1-.65.1-.99s-.03-.66-.1-.99c-.06-.33-.16-.64-.29-.95-.13-.31-.28-.6-.47-.88-.18-.27-.4-.53-.63-.77-.23-.23-.49-.44-.77-.63-.28-.18-.57-.34-.88-.46-.31-.13-.63-.22-.95-.28-.32-.06-.66-.09-.99-.09h.03ZM213.81,368.05c-.31,0-.6.03-.9.09-.3.06-.59.15-.86.27-.28.11-.55.26-.8.42-.25.17-.49.36-.7.58-.21.22-.41.45-.57.7-.17.25-.31.52-.43.8-.12.28-.21.57-.27.86s-.09.6-.09.9.03.6.09.9.15.59.27.87c.12.28.26.54.43.8.17.26.36.49.57.7.22.22.45.41.7.58.25.17.52.31.8.43.28.12.57.2.86.26.3.06.6.09.9.09s.6-.03.9-.09c.3-.06.59-.14.87-.26.28-.12.55-.26.8-.43.25-.17.49-.36.7-.58.22-.22.41-.45.58-.7.17-.25.31-.52.43-.8.12-.28.2-.57.26-.87.06-.3.09-.6.09-.9s-.03-.61-.09-.9c-.06-.3-.14-.59-.26-.86-.12-.28-.26-.55-.43-.8-.17-.25-.36-.49-.58-.7s-.45-.41-.7-.58c-.25-.17-.52-.31-.8-.42-.28-.12-.57-.21-.87-.27s-.6-.09-.9-.09ZM200.35,381.94c-.55,0-1.09.11-1.6.32-.51.21-.96.52-1.36.91-.39.39-.69.85-.9,1.36-.21.51-.32,1.04-.32,1.6s.11,1.09.32,1.6c.21.51.51.96.9,1.36.4.39.85.69,1.36.9.51.21,1.05.32,1.6.32s1.09-.11,1.6-.32c.51-.21.97-.51,1.36-.9.39-.4.7-.85.91-1.36.21-.51.32-1.05.32-1.6s-.11-1.09-.32-1.6c-.21-.51-.52-.97-.91-1.36s-.85-.7-1.36-.91c-.51-.21-1.04-.32-1.6-.32ZM186.89,395.83c-.5,0-.99.1-1.45.29-.46.19-.87.47-1.22.82-.36.35-.63.76-.82,1.22-.19.46-.28.95-.28,1.45s.1.98.29,1.44c.19.46.46.87.82,1.22.36.35.77.63,1.23.81.46.19.95.28,1.44.28.5,0,.99-.1,1.44-.3.46-.19.87-.47,1.22-.82.35-.36.62-.77.81-1.23.19-.46.28-.95.28-1.44s-.1-.98-.29-1.44c-.19-.46-.47-.86-.82-1.22-.36-.35-.76-.62-1.22-.81-.46-.19-.94-.29-1.44-.29ZM173.42,409.71c-.45,0-.87.09-1.29.25-.41.17-.77.41-1.09.73s-.56.68-.73,1.08c-.17.41-.26.84-.26,1.29s.09.87.25,1.28c.17.41.41.77.73,1.09s.68.56,1.09.73c.41.17.84.26,1.28.26s.87-.09,1.29-.25c.41-.17.77-.41,1.09-.73s.56-.68.72-1.09c.17-.41.26-.84.26-1.28s-.09-.87-.25-1.28c-.17-.41-.41-.77-.73-1.09-.32-.32-.68-.56-1.08-.73-.41-.17-.84-.26-1.28-.26ZM159.96,423.6c-.39,0-.77.07-1.13.22-.36.15-.68.36-.95.63-.28.27-.49.59-.64.95-.15.36-.23.73-.23,1.12s.07.77.22,1.13c.15.36.36.68.63.95.27.28.59.49.95.64.36.15.73.22,1.12.23.39,0,.76-.08,1.12-.23s.68-.36.95-.63c.27-.27.49-.59.63-.95.15-.36.22-.73.22-1.13s-.07-.76-.22-1.12c-.15-.36-.36-.68-.63-.95-.27-.27-.59-.49-.95-.63-.36-.15-.73-.23-1.12-.23ZM308.23,298.61c-.44,0-.88.04-1.31.13-.44.09-.86.21-1.27.38-.41.17-.8.37-1.17.62-.37.24-.71.52-1.03.83-.32.32-.59.65-.84,1.02-.25.37-.45.76-.63,1.17-.17.41-.3.83-.39,1.26-.09.43-.14.87-.14,1.31s.04.88.13,1.32c.09.43.22.86.38,1.26.17.41.38.8.62,1.17.25.37.53.71.84,1.03.32.32.65.59,1.02.84.37.25.76.45,1.17.63.41.17.83.3,1.26.38.43.09.87.13,1.31.14.45,0,.88-.04,1.32-.13.43-.09.86-.21,1.26-.38.41-.17.8-.38,1.17-.62.37-.25.71-.53,1.03-.84s.59-.65.84-1.02c.25-.36.45-.76.63-1.17.17-.41.3-.83.38-1.26.09-.43.13-.87.13-1.31s-.05-.88-.13-1.31-.21-.85-.38-1.26c-.17-.41-.37-.8-.62-1.16-.24-.37-.52-.71-.83-1.02-.32-.32-.65-.59-1.02-.84-.37-.25-.76-.45-1.16-.63-.41-.17-.83-.3-1.26-.39-.43-.09-.87-.14-1.31-.14ZM294.77,312.5c-.41,0-.83.04-1.23.12s-.8.2-1.18.36c-.39.16-.75.36-1.09.59-.35.23-.67.49-.96.78-.29.29-.56.61-.79.96-.23.34-.42.71-.59,1.09-.16.38-.28.78-.36,1.18-.08.41-.12.82-.12,1.23s.04.82.12,1.23c.08.41.2.8.36,1.18s.36.75.59,1.09.49.67.78.96c.29.29.61.55.96.79.34.23.71.42,1.09.58.38.16.78.28,1.18.36.41.08.82.12,1.23.12s.83-.04,1.23-.12.8-.2,1.18-.36c.38-.16.75-.36,1.09-.59s.67-.49.96-.78c.29-.29.55-.61.79-.96.23-.34.42-.71.59-1.09.16-.38.28-.78.36-1.19.08-.41.12-.81.12-1.23s-.04-.83-.12-1.23c-.08-.41-.2-.8-.36-1.18-.16-.39-.36-.75-.59-1.09-.23-.35-.49-.67-.78-.96-.29-.29-.61-.56-.96-.79-.34-.23-.71-.42-1.09-.59-.38-.16-.78-.28-1.18-.36-.41-.08-.82-.12-1.23-.12ZM281.3,326.39c-.39,0-.77.04-1.15.11-.38.08-.75.18-1.11.33-.36.15-.7.33-1.02.54-.32.22-.62.46-.89.73s-.52.57-.73.89c-.22.32-.4.66-.54,1.02-.15.36-.26.73-.34,1.11-.08.38-.11.77-.11,1.15s.04.77.11,1.15c.07.38.18.75.33,1.11.15.36.33.7.54,1.02.22.32.46.62.73.9.27.27.57.52.9.73.32.21.66.4,1.02.54.36.14.72.26,1.11.33.38.08.76.11,1.15.11s.77-.04,1.15-.11c.38-.08.75-.19,1.1-.34.36-.15.7-.33,1.02-.54.32-.22.62-.46.89-.73s.52-.57.73-.89c.22-.32.4-.67.54-1.02.14-.36.26-.72.33-1.11.08-.38.11-.76.11-1.15s-.04-.77-.11-1.15c-.08-.38-.19-.75-.34-1.11-.15-.36-.33-.69-.54-1.02-.21-.32-.45-.62-.73-.89s-.57-.52-.89-.73c-.32-.21-.66-.4-1.02-.54-.36-.14-.73-.26-1.11-.33-.38-.08-.76-.11-1.15-.11ZM267.83,340.28c-.36,0-.71.03-1.07.1-.35.07-.69.18-1.02.31-.33.14-.65.31-.95.5-.3.2-.58.43-.83.68-.25.26-.48.53-.68.83-.2.3-.36.62-.5.95-.14.33-.24.67-.31,1.02-.07.36-.1.71-.1,1.07s.03.72.1,1.07c.07.36.18.7.31,1.03.14.33.31.65.5.95.2.3.43.58.68.83s.53.48.83.68c.3.2.61.37.95.51.33.14.67.24,1.02.31.36.07.71.1,1.07.1s.72-.04,1.07-.1c.36-.07.7-.18,1.03-.31.33-.14.65-.31.95-.51.3-.2.58-.42.83-.68.26-.25.48-.53.68-.83.2-.3.37-.61.51-.95.14-.33.24-.67.31-1.03.07-.35.1-.71.1-1.07s-.04-.71-.1-1.07c-.07-.35-.18-.69-.31-1.02-.14-.33-.31-.65-.51-.95-.2-.3-.42-.58-.68-.83s-.53-.48-.83-.68c-.3-.2-.61-.36-.95-.5-.33-.14-.67-.24-1.03-.31-.35-.07-.71-.1-1.07-.1ZM254.37,354.17c-.33,0-.66.03-.99.09-.32.07-.64.16-.95.29-.31.13-.6.28-.87.46-.27.18-.53.4-.76.63s-.45.49-.63.77c-.18.27-.34.56-.46.87-.13.31-.23.62-.29.95-.06.33-.1.65-.1.99s.04.66.1.99c.06.32.16.64.29.95.13.31.28.59.46.87.18.28.4.53.63.77.23.23.49.45.76.63.27.18.57.34.87.46.31.13.62.23.95.29s.65.09.99.09.66-.03.98-.09.64-.16.95-.29c.3-.13.59-.28.87-.46.27-.18.53-.4.77-.63s.44-.49.63-.77c.18-.27.34-.56.47-.87.13-.31.22-.62.29-.95.06-.33.09-.65.09-.99s-.03-.66-.09-.99c-.06-.32-.16-.64-.29-.95-.13-.31-.28-.6-.46-.87s-.4-.53-.63-.77-.49-.44-.76-.63c-.28-.18-.57-.34-.87-.46-.31-.13-.62-.23-.95-.29-.32-.06-.65-.09-.98-.09ZM240.9,368.05c-.3,0-.6.04-.9.09-.3.06-.59.15-.86.27-.28.12-.54.26-.8.43-.25.17-.49.36-.7.58-.21.22-.41.45-.57.71-.17.25-.31.52-.42.8-.11.28-.2.57-.26.87-.06.3-.09.6-.09.9,0,.3.04.6.09.9.06.3.15.59.27.86.12.28.26.55.43.8.17.25.36.49.58.7.21.22.45.41.7.57.25.17.52.31.8.42.28.12.57.2.86.26.3.06.6.09.9.09s.6-.03.9-.09c.3-.06.59-.15.86-.27.28-.12.54-.26.8-.43.25-.17.49-.36.7-.58.21-.22.4-.45.57-.7.17-.25.31-.52.42-.8s.2-.57.26-.87c.06-.3.09-.6.09-.9s-.03-.61-.09-.9-.15-.59-.27-.87c-.12-.28-.26-.55-.43-.8-.17-.25-.36-.49-.58-.7-.22-.22-.45-.41-.7-.58-.26-.17-.52-.31-.81-.42-.28-.11-.57-.2-.87-.26-.3-.06-.6-.09-.9-.09ZM227.44,381.94c-.55,0-1.09.11-1.6.32-.51.21-.96.52-1.35.91-.4.39-.7.85-.91,1.36-.21.51-.32,1.04-.32,1.6s.11,1.09.32,1.6c.21.51.51.96.91,1.36s.84.69,1.35.9c.51.21,1.05.32,1.6.32s1.09-.11,1.6-.32c.51-.21.97-.51,1.36-.9.4-.4.7-.85.91-1.36.21-.51.32-1.05.32-1.6s-.11-1.09-.32-1.6c-.21-.51-.51-.97-.91-1.36-.39-.39-.85-.7-1.36-.91-.51-.21-1.04-.32-1.6-.32ZM213.98,395.83c-.5,0-.98.1-1.44.29-.46.19-.87.46-1.22.82-.36.36-.63.76-.82,1.22-.19.46-.29.95-.29,1.44s.09.98.29,1.44c.19.46.46.87.82,1.22.35.36.76.63,1.22.82.46.19.95.29,1.44.29s.98-.1,1.44-.29c.46-.19.87-.46,1.22-.82.35-.36.63-.76.82-1.22.19-.46.28-.95.28-1.44s-.09-.98-.28-1.44c-.19-.46-.47-.87-.82-1.22-.36-.36-.77-.63-1.22-.82-.46-.19-.95-.29-1.44-.29ZM200.51,409.71c-.45,0-.87.09-1.28.26-.41.17-.77.41-1.09.72-.32.32-.56.68-.73,1.09-.17.41-.25.84-.25,1.29s.08.87.25,1.28c.17.41.41.77.73,1.09.32.32.68.56,1.09.72.41.17.84.26,1.28.26s.87-.09,1.28-.26c.41-.17.77-.41,1.09-.72.32-.32.56-.68.73-1.09.17-.41.26-.84.26-1.28s-.09-.87-.26-1.29c-.17-.41-.41-.77-.73-1.09-.32-.31-.68-.55-1.09-.72-.41-.17-.84-.26-1.28-.26ZM187.05,423.6c-.39,0-.77.07-1.13.22-.36.15-.68.36-.95.63-.27.27-.49.59-.64.95-.15.36-.23.73-.23,1.12s.08.77.23,1.13c.14.36.36.68.63.95.27.28.59.49.95.64.36.15.73.22,1.12.23.39,0,.77-.08,1.12-.23.36-.15.68-.36.95-.63.27-.27.49-.59.63-.95.15-.36.23-.73.23-1.13s-.08-.76-.23-1.12c-.15-.36-.36-.68-.63-.95-.27-.27-.59-.49-.95-.63-.36-.15-.73-.23-1.12-.23ZM335.31,298.61c-.44,0-.88.04-1.31.13-.43.09-.86.21-1.26.38s-.8.38-1.17.62c-.37.25-.71.53-1.02.84-.31.31-.59.65-.84,1.02-.25.36-.45.76-.63,1.17-.17.41-.3.83-.38,1.26-.09.43-.13.87-.13,1.31s.04.88.13,1.31c.09.43.22.86.38,1.26.17.41.38.8.63,1.17.25.37.53.71.84,1.02.32.31.65.59,1.02.84.37.25.76.45,1.17.63.41.17.83.3,1.26.38.44.09.87.13,1.31.13s.88-.04,1.31-.13c.44-.09.86-.22,1.26-.38.41-.17.8-.38,1.17-.63.37-.25.71-.53,1.02-.84.32-.32.59-.65.84-1.02.24-.37.45-.76.62-1.17.17-.41.3-.83.38-1.26.09-.44.13-.87.13-1.31s-.04-.88-.13-1.31c-.09-.44-.21-.86-.38-1.26-.17-.41-.38-.8-.62-1.17-.25-.37-.53-.71-.84-1.02-.31-.32-.65-.59-1.02-.84-.36-.24-.76-.45-1.17-.62-.41-.17-.83-.3-1.26-.38-.43-.09-.87-.13-1.31-.13ZM321.86,312.5c-.41,0-.82.04-1.23.12-.41.08-.8.2-1.18.36-.38.16-.75.36-1.09.59-.35.23-.67.49-.96.78-.29.29-.55.61-.79.96-.23.34-.42.71-.59,1.09-.16.38-.28.78-.36,1.18-.08.41-.12.82-.12,1.23s.04.82.12,1.23c.08.41.2.8.36,1.18.16.38.36.75.59,1.09s.49.67.78.96c.29.29.61.55.96.79.34.23.71.42,1.09.59.38.16.78.28,1.19.36.41.08.81.12,1.23.12s.83-.04,1.23-.12c.41-.08.8-.2,1.18-.36.39-.16.75-.36,1.09-.59.35-.23.67-.49.96-.78.29-.29.56-.61.79-.96.23-.34.42-.71.59-1.09.16-.38.28-.78.36-1.19.08-.41.12-.81.12-1.23s-.04-.83-.12-1.23c-.08-.41-.2-.8-.36-1.18-.16-.39-.36-.75-.59-1.09-.23-.35-.49-.67-.78-.96s-.61-.56-.96-.79c-.34-.23-.71-.42-1.09-.59-.38-.16-.78-.28-1.18-.36-.41-.08-.82-.12-1.23-.12ZM308.37,326.39c-.39,0-.77.04-1.15.11-.38.08-.75.18-1.1.33-.36.15-.7.33-1.02.54-.32.22-.62.46-.89.73-.27.27-.52.57-.73.89-.22.32-.4.66-.55,1.02-.15.36-.26.73-.33,1.11s-.11.77-.11,1.15.04.77.11,1.15c.07.38.18.75.33,1.11.15.36.33.7.54,1.02.22.32.46.62.73.9.27.27.57.52.89.73.32.21.66.4,1.02.54.36.14.72.26,1.11.33.38.08.76.11,1.15.11s.77-.04,1.15-.11c.38-.08.75-.19,1.1-.34.36-.15.7-.33,1.02-.54.32-.22.62-.46.89-.73.27-.27.52-.57.73-.89.21-.32.4-.67.54-1.02.14-.36.26-.72.33-1.11.08-.38.11-.76.11-1.15s-.04-.77-.11-1.15c-.08-.38-.19-.75-.34-1.11-.15-.36-.33-.69-.54-1.02-.21-.32-.46-.62-.73-.89-.27-.27-.57-.52-.89-.73-.32-.21-.66-.4-1.02-.54-.36-.14-.72-.26-1.1-.33-.38-.08-.76-.11-1.15-.11ZM294.9,340.28c-.36,0-.71.03-1.07.1-.35.07-.69.18-1.03.31-.33.14-.64.31-.95.5-.3.2-.57.43-.83.68-.25.26-.48.53-.68.83-.2.3-.36.62-.5.95-.14.33-.24.67-.31,1.02-.07.36-.1.71-.1,1.07s.03.72.1,1.07c.07.36.18.7.31,1.03.14.33.31.65.5.95.2.3.43.58.68.83.26.26.53.48.83.68.3.2.62.37.95.51.33.14.68.24,1.03.31.36.07.71.1,1.07.1s.72-.04,1.07-.1c.36-.07.69-.18,1.03-.31.33-.14.65-.31.95-.51.3-.2.58-.42.83-.68.26-.25.48-.53.68-.83.2-.3.37-.61.51-.95.14-.33.24-.67.31-1.03.07-.35.1-.71.1-1.07s-.04-.71-.1-1.06c-.07-.35-.18-.69-.31-1.02-.14-.33-.3-.65-.5-.95-.2-.3-.42-.57-.68-.83-.25-.25-.53-.48-.82-.68-.3-.2-.61-.37-.94-.5-.33-.14-.67-.24-1.02-.32-.35-.07-.71-.11-1.06-.11h-.03ZM281.45,354.17c-.33,0-.66.03-.98.09-.32.07-.64.16-.95.29-.31.13-.6.28-.87.46-.27.18-.53.4-.77.63-.23.23-.44.49-.63.77-.18.27-.34.56-.47.87-.13.31-.22.62-.29.95-.06.33-.09.65-.09.99s.03.66.09.99c.07.32.16.64.29.95.13.31.28.59.47.87.18.28.39.53.63.77.23.23.49.45.77.63.27.18.57.34.87.46.31.13.62.23.95.29s.65.09.98.09.66-.03.99-.09.64-.16.95-.29c.31-.13.6-.28.87-.46.27-.18.53-.4.77-.63.23-.23.44-.49.63-.77.18-.27.34-.56.46-.87.13-.31.23-.62.29-.95.07-.33.1-.65.1-.99s-.03-.66-.1-.99c-.06-.32-.16-.64-.28-.95-.13-.31-.28-.6-.47-.87-.18-.27-.39-.53-.63-.77-.23-.23-.49-.44-.77-.63-.27-.18-.57-.34-.87-.46-.31-.13-.62-.23-.95-.29-.32-.06-.65-.09-.99-.09ZM267.99,368.05c-.31,0-.61.03-.9.09s-.59.15-.87.27c-.28.11-.54.26-.8.42-.25.17-.49.36-.7.58-.21.22-.41.45-.58.7-.17.25-.31.52-.43.8-.11.28-.2.57-.26.86-.06.3-.09.6-.09.9s.03.6.09.9c.06.3.15.59.26.87.12.28.26.54.43.8.17.26.36.49.58.7s.45.41.7.58c.25.17.52.31.8.43.28.12.57.2.87.26.3.06.6.09.9.09s.6-.03.9-.09c.3-.06.59-.14.87-.26.28-.12.54-.26.8-.43.25-.17.49-.36.7-.58s.41-.45.58-.7c.17-.25.31-.52.43-.8s.2-.57.26-.87c.06-.3.09-.6.09-.9s-.03-.6-.09-.9c-.06-.3-.15-.59-.27-.86-.11-.28-.26-.54-.42-.8-.17-.25-.36-.49-.58-.7-.21-.22-.45-.41-.7-.58-.25-.17-.52-.31-.8-.43-.28-.12-.57-.2-.87-.27-.3-.06-.59-.09-.9-.09h0ZM254.53,381.94c-.56,0-1.09.11-1.6.32-.51.21-.97.52-1.36.91s-.7.85-.91,1.36c-.21.51-.32,1.04-.32,1.6s.11,1.09.32,1.6c.21.51.52.96.91,1.36.39.39.85.69,1.36.9.51.21,1.04.32,1.6.32s1.09-.11,1.6-.32c.51-.21.96-.51,1.35-.9s.7-.85.91-1.36c.21-.51.32-1.05.32-1.6s-.11-1.09-.32-1.6c-.21-.51-.51-.97-.91-1.36-.39-.39-.84-.7-1.35-.91-.51-.21-1.05-.32-1.6-.32ZM241.07,395.83c-.5,0-.98.1-1.44.29-.46.19-.87.47-1.23.82s-.63.76-.81,1.22c-.19.46-.29.95-.29,1.45,0,.5.1.98.29,1.44s.47.87.82,1.22c.36.35.77.63,1.23.81s.95.28,1.45.28c.5,0,.98-.1,1.44-.3.46-.19.87-.47,1.22-.82s.63-.77.81-1.23c.19-.46.28-.95.28-1.44,0-.5-.1-.98-.3-1.44-.19-.46-.46-.86-.82-1.22-.35-.35-.76-.62-1.22-.81-.46-.19-.94-.29-1.44-.29ZM227.61,409.71c-.45,0-.87.09-1.28.26-.41.17-.77.41-1.09.72-.32.32-.56.68-.73,1.09-.17.41-.26.84-.26,1.29s.09.87.26,1.28c.17.41.41.77.73,1.09.32.32.68.56,1.09.72.41.17.84.26,1.28.26s.87-.09,1.28-.26c.41-.17.77-.41,1.09-.72.32-.32.56-.68.73-1.09.17-.41.26-.84.26-1.28s-.09-.87-.26-1.29c-.17-.41-.41-.77-.73-1.09-.32-.31-.68-.55-1.09-.72-.41-.17-.84-.26-1.28-.26ZM214.16,423.6c-.39,0-.77.07-1.13.22s-.68.36-.95.63c-.28.27-.49.59-.64.95-.15.36-.23.73-.23,1.12s.07.77.22,1.13c.15.36.36.68.63.95.27.28.59.49.95.64.36.15.73.22,1.12.23.39,0,.76-.08,1.12-.23.36-.15.68-.36.95-.63.27-.27.49-.59.63-.95.15-.36.23-.73.23-1.13s-.08-.76-.23-1.12c-.15-.36-.36-.68-.64-.95-.27-.27-.59-.49-.95-.63-.36-.15-.74-.22-1.13-.22h.01ZM362.41,298.61c-.44,0-.88.04-1.31.13-.43.09-.86.21-1.26.38-.41.17-.8.38-1.17.62-.36.25-.71.53-1.02.84-.31.31-.59.65-.84,1.02-.25.36-.45.76-.62,1.17-.17.41-.3.83-.39,1.26-.09.43-.13.87-.13,1.31s.04.88.13,1.31c.09.43.22.86.39,1.26.17.41.37.8.62,1.17.25.37.53.71.84,1.02.32.31.66.59,1.02.84.37.25.76.45,1.17.63.41.17.83.3,1.26.38.44.09.87.13,1.31.13s.88-.04,1.32-.13c.43-.09.86-.22,1.26-.38.41-.17.8-.38,1.17-.63.36-.25.71-.53,1.02-.84.31-.32.59-.65.84-1.02.24-.37.45-.76.62-1.17.17-.41.3-.83.39-1.26.09-.44.13-.87.13-1.31s-.04-.88-.13-1.31c-.09-.44-.22-.86-.39-1.26-.17-.41-.38-.8-.62-1.17-.25-.37-.53-.71-.84-1.02-.32-.32-.66-.59-1.02-.84-.37-.24-.76-.45-1.17-.62-.41-.17-.83-.3-1.26-.38-.44-.09-.87-.13-1.32-.13ZM348.95,312.5c-.41,0-.82.04-1.23.12-.41.08-.8.2-1.18.36-.38.16-.75.36-1.09.59-.34.23-.66.49-.96.78-.29.29-.55.61-.78.96-.23.34-.43.71-.59,1.09-.16.38-.28.78-.36,1.18-.08.41-.13.82-.13,1.23s.04.82.12,1.23c.08.41.2.8.36,1.18.16.38.35.75.58,1.09s.49.67.78.96c.3.29.61.55.96.79.35.23.71.42,1.09.58.38.16.77.28,1.18.36.41.08.81.12,1.23.12s.83-.04,1.23-.12c.41-.08.8-.2,1.19-.36.38-.16.75-.36,1.09-.59.35-.23.67-.49.96-.78.29-.29.56-.61.79-.96.23-.34.43-.71.59-1.09.16-.38.28-.78.36-1.19.08-.41.12-.81.12-1.23s-.04-.83-.12-1.23c-.08-.41-.2-.8-.36-1.18-.16-.39-.35-.75-.59-1.09-.23-.35-.49-.67-.78-.96-.29-.29-.61-.56-.95-.79-.35-.23-.71-.42-1.09-.59-.38-.16-.78-.28-1.18-.36s-.82-.12-1.23-.12ZM335.48,326.39c-.39,0-.77.04-1.15.11-.38.08-.75.18-1.11.33-.36.15-.7.33-1.02.54-.32.22-.62.46-.9.73-.27.27-.52.57-.73.89-.22.32-.4.66-.54,1.02-.15.36-.26.73-.34,1.11-.07.38-.11.77-.11,1.15s.04.77.11,1.15.19.75.34,1.11c.15.36.33.7.54,1.02.21.32.46.62.73.9.27.27.57.52.9.73.32.21.66.4,1.02.54.36.14.73.26,1.11.33.38.08.77.11,1.15.11s.77-.04,1.15-.11c.38-.08.75-.19,1.11-.34.36-.15.7-.33,1.02-.54.32-.22.62-.46.89-.73.27-.27.52-.57.73-.89.22-.32.4-.67.54-1.02.15-.36.26-.72.33-1.11.08-.38.11-.76.11-1.15s-.04-.77-.11-1.15c-.08-.38-.18-.75-.33-1.11-.15-.36-.33-.69-.54-1.02-.22-.32-.46-.62-.73-.89-.27-.27-.57-.52-.89-.73-.32-.21-.66-.4-1.02-.54-.36-.14-.72-.26-1.1-.33-.38-.08-.77-.11-1.15-.11ZM322.02,340.28c-.36,0-.72.04-1.07.11-.35.07-.69.18-1.02.32-.33.14-.65.31-.95.51-.3.2-.57.43-.82.68-.25.25-.48.53-.68.83-.2.3-.36.61-.5.95-.14.33-.24.68-.31,1.03s-.1.71-.1,1.07c0,.36.04.71.11,1.07.07.35.18.69.32,1.02.14.33.31.64.51.95.2.3.43.57.68.82.26.25.53.48.83.68.3.2.62.36.95.5.33.14.68.24,1.03.31.35.07.71.1,1.07.1s.72-.04,1.07-.11c.35-.07.69-.17,1.02-.31.33-.14.65-.31.95-.5.3-.2.57-.43.83-.68.25-.26.48-.53.68-.83.2-.3.36-.62.5-.95.14-.33.24-.68.31-1.03.07-.35.1-.71.1-1.07s-.04-.72-.11-1.07c-.07-.36-.17-.7-.31-1.03s-.31-.65-.51-.95c-.2-.3-.43-.58-.68-.83-.25-.26-.53-.48-.83-.68-.3-.2-.62-.37-.95-.5-.33-.14-.68-.24-1.03-.31-.36-.07-.71-.1-1.07-.1ZM308.55,354.17c-.33,0-.66.03-.98.09-.33.07-.64.16-.95.29-.31.13-.59.28-.87.46-.27.18-.53.4-.77.63-.23.23-.45.49-.63.77-.18.27-.34.56-.47.87-.13.31-.22.62-.29.95-.06.33-.09.65-.09.99s.03.66.09.99c.07.32.16.64.29.95.13.31.28.59.47.87.18.28.39.53.63.77.23.23.49.45.77.63.27.18.56.34.87.46.31.13.62.23.95.29.32.06.65.09.98.09s.66-.03.99-.09.64-.16.95-.29c.31-.13.59-.28.87-.46.27-.18.53-.4.76-.63.23-.23.45-.49.63-.77.18-.27.34-.56.46-.87.13-.31.23-.62.29-.95.06-.33.1-.65.1-.99s-.03-.66-.1-.99c-.06-.32-.16-.64-.28-.95-.13-.31-.28-.6-.47-.87-.18-.27-.39-.53-.63-.77-.23-.23-.49-.44-.77-.63-.27-.18-.57-.34-.87-.46-.31-.13-.62-.23-.95-.29-.32-.06-.65-.09-.99-.09ZM295.09,368.05c-.31,0-.61.03-.9.09s-.59.15-.87.27c-.28.11-.54.26-.8.42-.25.17-.49.36-.7.58-.22.22-.41.45-.58.7-.17.25-.31.52-.43.8-.11.28-.2.57-.26.86s-.09.6-.09.9.03.6.09.9.15.59.26.87c.12.28.26.54.43.8.17.26.36.49.58.7s.45.41.7.58c.25.17.52.31.8.43.28.12.57.2.87.26.3.06.6.09.9.09s.6-.03.9-.09c.3-.06.59-.14.87-.26.28-.12.54-.26.8-.43.25-.17.49-.36.7-.58s.41-.45.58-.7c.17-.25.31-.52.43-.8.11-.28.2-.57.26-.87.06-.3.09-.6.09-.9s-.03-.61-.09-.9c-.06-.3-.14-.59-.26-.87-.12-.28-.26-.54-.43-.8-.17-.26-.36-.49-.58-.7-.21-.22-.45-.41-.7-.58-.26-.17-.52-.31-.8-.43-.28-.12-.57-.2-.87-.26s-.6-.09-.9-.09ZM281.62,381.94c-.56,0-1.09.11-1.6.32-.51.21-.97.52-1.36.91s-.69.85-.91,1.36c-.21.51-.32,1.04-.32,1.6s.1,1.09.32,1.6c.22.51.52.96.91,1.36.39.39.85.69,1.36.9.51.21,1.04.32,1.6.32s1.09-.11,1.6-.32c.51-.21.96-.51,1.36-.9.39-.4.69-.85.9-1.36.22-.51.32-1.05.32-1.6s-.1-1.09-.32-1.6c-.21-.51-.51-.97-.9-1.36-.4-.39-.85-.7-1.36-.91-.51-.21-1.05-.32-1.6-.32ZM268.16,395.83c-.5,0-.98.1-1.44.29-.46.19-.87.46-1.22.82-.35.36-.63.76-.82,1.22-.19.46-.28.95-.28,1.44s.09.98.28,1.44c.19.46.47.87.82,1.22.36.36.77.63,1.22.82.46.19.95.29,1.44.29s.98-.1,1.44-.29c.46-.19.87-.46,1.22-.82.36-.36.63-.76.82-1.22.19-.46.29-.95.29-1.44s-.09-.98-.29-1.44c-.19-.46-.46-.87-.82-1.22-.35-.36-.76-.63-1.22-.82-.46-.19-.95-.29-1.44-.29ZM254.7,409.71c-.45,0-.87.09-1.29.26-.41.17-.77.41-1.09.72-.32.32-.55.68-.72,1.09-.17.41-.26.84-.26,1.29s.09.87.26,1.28c.17.41.41.77.72,1.09s.68.56,1.09.72c.41.17.84.26,1.29.26s.87-.09,1.28-.26c.41-.17.77-.41,1.09-.72.32-.32.56-.68.72-1.09.17-.41.26-.84.26-1.28s-.09-.87-.26-1.29c-.17-.41-.41-.77-.72-1.09-.32-.31-.68-.55-1.09-.72-.41-.17-.84-.26-1.28-.26ZM241.23,423.6c-.39,0-.76.07-1.12.22-.36.15-.68.36-.95.63-.27.27-.49.59-.63.95-.15.36-.23.73-.23,1.12s.07.77.22,1.13c.15.36.36.68.63.95.27.28.59.49.95.64.36.15.73.22,1.12.23.39,0,.77-.08,1.13-.23s.68-.36.95-.63c.27-.27.49-.59.63-.95.15-.36.23-.73.23-1.13s-.07-.76-.22-1.12c-.15-.36-.36-.68-.63-.95-.27-.27-.59-.49-.95-.63-.36-.15-.73-.23-1.12-.23ZM267.69,285.58c-.42,0-.83.04-1.23.12-.41.08-.81.19-1.19.35-.38.16-.75.35-1.09.58-.35.23-.67.49-.96.78-.29.29-.55.61-.79.95-.23.35-.43.71-.59,1.09-.16.38-.28.78-.36,1.18-.09.41-.13.82-.13,1.23,0,.41.04.83.12,1.23.08.41.2.8.36,1.19.16.38.35.75.58,1.09.23.35.49.67.78.96.29.3.61.56.95.79.34.23.71.43,1.09.59.38.16.78.28,1.18.36.41.08.82.12,1.23.13.41,0,.82-.04,1.23-.12.41-.08.8-.2,1.18-.36.39-.16.75-.35,1.09-.58.35-.23.67-.49.96-.78.29-.29.55-.61.79-.95.23-.34.43-.71.59-1.09.16-.38.28-.78.36-1.18.08-.41.12-.82.13-1.23,0-.41-.04-.82-.12-1.23-.08-.41-.2-.8-.36-1.18-.15-.38-.35-.75-.58-1.09-.23-.35-.49-.67-.78-.96-.29-.29-.61-.56-.95-.79-.34-.23-.71-.43-1.09-.59-.38-.16-.78-.28-1.18-.36-.41-.09-.81-.13-1.23-.13ZM254.23,272.53c-.39,0-.77.04-1.15.11-.38.08-.75.19-1.1.33-.36.15-.7.33-1.02.54-.32.22-.62.46-.89.73-.27.27-.52.57-.73.89-.22.32-.4.66-.55,1.02-.14.36-.26.72-.33,1.1-.08.38-.12.77-.12,1.15s.04.77.11,1.15c.08.38.19.75.34,1.11.15.36.33.7.54,1.02.21.32.46.62.73.9.27.27.57.52.9.73.32.21.66.4,1.02.54s.72.26,1.11.33c.38.08.76.11,1.15.12.39,0,.77-.04,1.15-.12.38-.07.75-.18,1.1-.33.36-.15.7-.33,1.02-.54.32-.22.62-.46.89-.73s.52-.57.73-.89c.22-.32.4-.66.54-1.02.15-.36.26-.72.33-1.1.08-.38.12-.77.12-1.15s-.04-.77-.12-1.15c-.07-.38-.18-.75-.33-1.11-.15-.36-.33-.7-.55-1.02-.21-.32-.46-.62-.73-.89-.27-.27-.57-.52-.9-.73-.32-.22-.66-.4-1.02-.54-.36-.15-.73-.26-1.11-.33-.38-.08-.77-.11-1.15-.11h.02ZM240.77,259.49c-.36,0-.72.04-1.07.1-.35.07-.69.18-1.03.31-.33.14-.65.31-.95.51-.3.2-.58.42-.83.68-.25.25-.48.53-.68.83-.2.3-.37.61-.5.95-.14.33-.24.68-.32,1.03-.07.35-.1.71-.1,1.07s.04.71.1,1.07c.07.35.18.69.32,1.03.14.33.31.64.5.95.2.3.43.57.68.83.25.25.53.48.83.68.3.2.61.36.95.5.33.14.68.24,1.03.31.35.07.71.1,1.07.1s.72-.03,1.07-.1c.35-.07.69-.17,1.03-.31.33-.14.64-.31.95-.5.3-.2.57-.43.83-.68.25-.26.48-.53.68-.83.2-.3.37-.62.5-.95.14-.33.24-.68.31-1.03.07-.36.11-.71.11-1.07s-.04-.72-.11-1.07c-.07-.35-.17-.69-.31-1.03-.14-.33-.31-.65-.5-.95s-.43-.58-.68-.83c-.26-.26-.53-.48-.83-.68-.3-.2-.62-.37-.95-.51-.33-.14-.68-.24-1.03-.31-.35-.07-.71-.1-1.07-.1ZM227.28,246.45c-.33,0-.66.04-.99.1-.32.06-.64.16-.95.29s-.6.28-.87.46c-.27.18-.53.4-.77.63-.23.23-.44.49-.63.76-.18.27-.34.57-.47.87-.13.31-.22.62-.28.95-.07.32-.1.65-.1.99s.03.66.1.98c.06.32.16.64.28.95.13.3.28.59.47.87.18.27.39.53.63.77.23.23.49.44.77.63.27.18.57.34.87.47s.62.22.95.29c.32.06.65.09.99.09s.66-.03.98-.09c.32-.07.64-.16.95-.29.31-.13.6-.28.87-.47.27-.18.53-.39.77-.63s.44-.49.63-.77c.18-.27.34-.57.47-.87.13-.3.22-.62.28-.95.07-.32.1-.65.1-.98s-.03-.66-.09-.99c-.07-.32-.16-.64-.29-.95s-.28-.6-.46-.87c-.18-.27-.4-.53-.63-.77-.23-.23-.49-.44-.77-.63-.27-.18-.56-.34-.87-.47-.31-.13-.63-.22-.95-.28-.32-.07-.65-.1-.98-.1ZM213.81,233.41c-.31,0-.6.03-.9.09-.3.06-.59.15-.86.27-.28.11-.55.26-.8.43-.25.17-.49.36-.7.57-.21.22-.41.45-.57.7-.17.25-.32.52-.43.8-.12.28-.21.57-.27.87s-.09.6-.09.9.03.6.09.9c.06.3.15.59.27.86.12.28.26.55.43.8.17.25.36.49.58.7.22.21.45.41.7.57.25.17.52.31.8.43.28.12.57.2.87.27.3.06.6.09.9.09s.6-.03.9-.09c.3-.06.59-.15.87-.26.28-.12.54-.26.8-.43.25-.17.48-.36.7-.58.22-.21.41-.45.58-.7.17-.26.31-.52.43-.8.11-.28.2-.57.26-.87s.09-.6.09-.9-.03-.6-.09-.9c-.06-.3-.14-.59-.26-.87-.12-.28-.26-.54-.43-.8-.17-.25-.36-.49-.58-.7s-.45-.41-.7-.57c-.26-.17-.52-.31-.8-.43s-.57-.2-.87-.26c-.3-.06-.6-.09-.9-.09ZM200.35,220.37c-.55,0-1.09.1-1.6.32-.51.21-.96.51-1.36.9-.39.4-.69.85-.9,1.36-.21.51-.32,1.05-.32,1.6s.11,1.09.32,1.6c.21.51.51.97.9,1.36.4.39.85.69,1.36.91.51.21,1.05.32,1.6.32s1.09-.1,1.6-.32c.51-.22.97-.52,1.36-.91s.7-.85.91-1.36c.21-.51.32-1.05.32-1.6s-.11-1.09-.32-1.6c-.21-.51-.52-.96-.91-1.36-.39-.39-.85-.69-1.36-.9-.51-.22-1.04-.32-1.6-.32ZM186.89,207.32c-.5,0-.99.1-1.44.29-.46.19-.87.46-1.22.82-.36.36-.63.76-.82,1.22-.19.46-.29.95-.29,1.44s.09.98.29,1.44c.19.46.46.87.82,1.22.35.36.76.63,1.22.82.46.19.94.29,1.44.29s.98-.1,1.44-.29c.46-.19.87-.46,1.22-.82.35-.36.63-.76.81-1.22.19-.46.29-.95.29-1.44s-.09-.98-.29-1.44c-.19-.46-.46-.87-.82-1.22-.35-.35-.76-.63-1.22-.81-.46-.19-.94-.29-1.44-.29ZM173.42,194.28c-.45,0-.87.09-1.29.25-.41.17-.77.41-1.09.73-.32.32-.56.68-.73,1.09-.17.41-.26.84-.26,1.28s.09.87.25,1.28c.17.41.41.78.73,1.09.32.32.68.55,1.09.72.41.17.84.26,1.28.26s.87-.08,1.29-.25c.41-.17.77-.41,1.09-.73.32-.32.56-.68.72-1.09.17-.41.26-.84.26-1.28s-.09-.87-.25-1.28c-.17-.41-.41-.77-.73-1.09-.32-.32-.68-.56-1.08-.73-.41-.17-.84-.26-1.28-.26ZM159.96,181.25c-.39,0-.77.07-1.13.22-.36.15-.68.36-.95.63-.28.27-.49.59-.64.95s-.23.73-.23,1.12.07.77.22,1.13c.15.36.36.68.63.95.27.27.59.49.95.64.36.15.73.22,1.12.22s.76-.07,1.12-.22.68-.36.95-.63c.27-.27.49-.59.63-.95.15-.36.22-.73.22-1.12s-.07-.76-.22-1.12c-.15-.36-.36-.68-.63-.95-.27-.27-.59-.49-.95-.63-.36-.15-.73-.23-1.12-.23ZM294.77,285.58c-.41,0-.83.04-1.23.12s-.8.2-1.18.36c-.38.16-.75.35-1.09.58s-.67.49-.96.78c-.29.29-.55.61-.78.96-.23.34-.43.71-.59,1.09-.16.38-.28.78-.36,1.18-.08.41-.12.82-.12,1.23s.04.82.12,1.23c.08.41.2.8.36,1.18.16.38.35.75.58,1.09.23.34.49.66.78.96.29.29.61.55.95.78.35.23.71.43,1.09.59.38.16.77.28,1.18.36.41.08.81.12,1.23.13.41,0,.83-.04,1.23-.12s.8-.2,1.18-.36c.39-.16.75-.35,1.09-.58.35-.23.67-.49.96-.78.3-.29.56-.61.79-.95.23-.35.43-.71.59-1.09.16-.38.28-.78.36-1.18.08-.41.13-.82.13-1.23s-.04-.83-.12-1.23c-.08-.41-.2-.81-.36-1.19s-.35-.75-.58-1.09-.49-.67-.78-.96c-.29-.3-.61-.56-.96-.79-.35-.23-.71-.42-1.09-.59-.38-.16-.78-.28-1.18-.36-.41-.08-.82-.12-1.23-.12ZM281.3,284.31c.39,0,.77-.04,1.15-.11.38-.08.75-.19,1.1-.34.36-.14.7-.33,1.02-.54.32-.21.62-.46.89-.73.27-.27.52-.57.73-.9.21-.32.4-.66.54-1.02.15-.36.26-.73.33-1.11.08-.38.11-.76.11-1.15s-.04-.77-.11-1.15c-.08-.38-.19-.75-.34-1.1-.15-.36-.33-.7-.54-1.02-.22-.32-.46-.62-.73-.89-.27-.27-.57-.52-.89-.73-.32-.22-.66-.4-1.02-.54-.36-.15-.72-.26-1.1-.33-.38-.08-.77-.11-1.15-.11s-.77.04-1.15.11c-.38.08-.75.19-1.11.34-.36.15-.7.33-1.02.54-.32.22-.62.46-.89.73-.27.27-.52.57-.73.9-.22.32-.4.66-.54,1.02-.15.36-.26.73-.33,1.11-.08.38-.11.76-.11,1.15s.04.77.11,1.15c.08.38.18.75.33,1.1.15.36.33.7.54,1.02.22.32.46.62.73.89.27.27.57.52.9.73.32.21.66.4,1.02.54.36.15.72.26,1.11.33.38.08.76.11,1.15.11ZM267.83,270.43c.36,0,.72-.03,1.07-.1.35-.07.69-.18,1.03-.31.33-.14.65-.31.95-.51.3-.2.58-.43.83-.68.26-.26.48-.53.68-.83.2-.3.37-.61.5-.95.14-.33.24-.68.31-1.03.07-.36.1-.71.1-1.07s-.04-.72-.11-1.07c-.07-.35-.18-.69-.31-1.03-.14-.33-.31-.64-.51-.95-.2-.3-.43-.57-.68-.83-.26-.25-.53-.48-.83-.68-.3-.2-.61-.37-.95-.5-.33-.14-.68-.24-1.03-.31-.35-.07-.71-.1-1.07-.1s-.72.04-1.07.11c-.35.07-.69.18-1.03.32-.33.14-.65.31-.95.51-.3.2-.57.43-.82.68-.26.25-.48.53-.68.83-.2.3-.36.62-.5.95-.14.33-.24.68-.31,1.03s-.1.71-.1,1.07c0,.36.04.72.11,1.06.07.35.18.69.32,1.02.14.33.31.64.51.94.2.3.42.57.68.82.25.25.53.48.83.68.3.2.61.36.94.5.33.14.67.24,1.02.31.35.07.71.1,1.06.1ZM254.37,256.54c.33,0,.66-.03.98-.09.32-.06.64-.16.95-.29.3-.13.59-.28.87-.46.27-.18.53-.4.77-.63.23-.23.44-.49.63-.76.18-.28.34-.57.47-.87.13-.31.22-.62.29-.95.06-.32.09-.65.09-.99s-.03-.66-.09-.98c-.07-.33-.16-.64-.29-.95-.13-.31-.28-.59-.47-.87-.18-.28-.39-.53-.63-.77s-.49-.45-.77-.63c-.27-.18-.57-.34-.87-.47-.31-.13-.63-.22-.95-.29-.32-.06-.65-.09-.98-.09s-.66.03-.99.09c-.32.07-.64.16-.95.29-.31.13-.6.28-.87.47-.27.18-.53.39-.76.63-.23.23-.45.49-.63.77-.18.27-.34.56-.46.87-.13.31-.23.62-.29.95-.06.32-.1.65-.1.98s.03.66.1.99c.06.32.16.64.28.95.13.31.28.6.47.87.18.27.39.53.63.77.23.23.49.44.77.63.27.18.57.34.87.47.31.13.62.22.95.28.32.06.65.1.99.09ZM240.9,242.66c.31,0,.6-.03.9-.09.3-.06.59-.14.86-.26.28-.12.55-.26.8-.43.25-.17.49-.36.7-.57.22-.22.41-.45.58-.7.17-.25.31-.52.43-.8.12-.28.21-.57.27-.86.06-.3.09-.6.09-.9s-.03-.6-.09-.9c-.06-.3-.14-.59-.26-.87-.12-.28-.26-.55-.43-.8-.17-.25-.36-.49-.58-.7s-.45-.41-.7-.57c-.25-.17-.52-.32-.8-.43-.28-.11-.57-.2-.87-.26-.3-.06-.6-.09-.9-.09s-.6.03-.9.09c-.3.06-.59.14-.86.26-.28.12-.55.26-.8.43-.25.17-.49.36-.7.58s-.41.45-.58.7c-.17.25-.31.52-.43.8-.12.28-.2.57-.26.87-.06.3-.09.6-.09.9s.03.61.09.9c.06.3.14.59.26.86.12.28.26.55.43.8.17.25.36.49.58.7.21.22.45.41.7.58.25.17.52.31.8.43.28.12.57.21.87.27s.6.09.9.09ZM227.44,228.77c.56,0,1.09-.11,1.6-.32.51-.21.97-.52,1.36-.91.4-.39.7-.85.91-1.36.21-.51.32-1.04.32-1.6s-.11-1.09-.32-1.6c-.21-.51-.51-.96-.91-1.35-.39-.4-.85-.7-1.36-.91s-1.04-.32-1.6-.32-1.09.11-1.6.32-.96.51-1.35.91c-.4.39-.7.84-.91,1.35-.21.51-.32,1.05-.32,1.6s.11,1.09.32,1.6c.21.51.51.97.91,1.36.39.39.84.7,1.35.91.51.21,1.05.32,1.6.32ZM213.98,214.88c.5,0,.98-.1,1.44-.29.46-.19.87-.46,1.22-.82.35-.36.63-.76.82-1.22.19-.46.28-.95.28-1.44s-.09-.98-.28-1.44c-.19-.46-.47-.87-.82-1.22-.36-.36-.77-.63-1.22-.82-.46-.19-.95-.29-1.44-.29s-.98.1-1.44.29c-.46.19-.87.46-1.22.82-.36.36-.63.76-.82,1.22-.19.46-.29.95-.29,1.44s.09.98.29,1.44c.19.46.46.87.81,1.22.36.36.77.63,1.23.82.46.19.95.29,1.44.29ZM200.51,200.99c.45,0,.87-.09,1.29-.26.41-.17.77-.41,1.09-.72.32-.32.56-.68.73-1.09.17-.41.26-.84.26-1.28s-.09-.88-.26-1.29c-.17-.41-.41-.77-.72-1.09s-.68-.56-1.09-.73c-.41-.17-.84-.26-1.29-.25-.45,0-.87.09-1.28.26-.41.17-.78.41-1.09.73-.32.32-.56.68-.73,1.09-.17.41-.25.84-.25,1.28s.09.87.26,1.28c.17.41.41.77.72,1.08.32.32.68.56,1.09.73.41.17.83.26,1.28.26ZM187.05,187.1c.39,0,.76-.08,1.12-.23s.68-.36.95-.63c.28-.27.49-.59.64-.95s.22-.73.22-1.13-.08-.76-.23-1.12c-.15-.36-.36-.68-.63-.95-.27-.27-.59-.49-.95-.63-.36-.15-.73-.23-1.12-.22-.39,0-.77.07-1.12.23-.36.15-.68.36-.95.63-.27.27-.49.59-.63.95-.15.36-.23.73-.22,1.12,0,.39.07.76.22,1.12.15.36.36.68.63.95.27.27.59.49.95.63.36.15.73.22,1.12.22ZM321.86,285.58c-.41,0-.82.04-1.23.12-.41.08-.8.2-1.18.36-.38.16-.75.35-1.09.58-.34.23-.66.49-.96.78-.29.29-.55.61-.78.96-.23.34-.43.71-.59,1.09-.16.38-.28.78-.36,1.18-.09.41-.13.82-.13,1.23s.04.82.12,1.23c.08.41.2.8.36,1.18.16.38.35.75.58,1.09.23.34.49.66.78.96.29.29.61.55.96.78.34.23.71.43,1.09.59.38.16.78.28,1.18.36s.81.12,1.23.13c.41,0,.82-.04,1.23-.12.41-.08.8-.2,1.19-.36.38-.16.75-.35,1.09-.58.35-.23.67-.49.96-.78.29-.29.55-.61.79-.95.23-.35.42-.71.59-1.09.16-.38.28-.78.36-1.18.09-.41.13-.82.13-1.23s-.04-.83-.12-1.23c-.08-.41-.2-.81-.36-1.19-.16-.38-.36-.75-.59-1.09s-.49-.67-.78-.96c-.29-.3-.61-.56-.96-.79-.34-.23-.71-.42-1.09-.59-.39-.16-.78-.28-1.19-.36-.41-.08-.82-.12-1.23-.12ZM308.37,284.31c.39,0,.77-.04,1.15-.11.38-.08.75-.19,1.11-.34.36-.14.7-.33,1.02-.54.32-.21.62-.46.9-.73.27-.27.52-.57.73-.9.21-.32.4-.66.54-1.02.14-.36.26-.73.33-1.11.08-.38.11-.76.11-1.15s-.04-.77-.11-1.15c-.08-.38-.19-.75-.34-1.1-.15-.36-.33-.7-.54-1.02-.22-.32-.46-.62-.73-.89-.27-.27-.57-.52-.89-.73-.32-.22-.66-.4-1.02-.54-.36-.15-.72-.26-1.1-.33-.38-.08-.77-.11-1.15-.11s-.77.04-1.15.11c-.38.08-.75.19-1.11.34s-.7.33-1.02.54c-.32.22-.62.46-.89.73-.27.27-.52.57-.73.9-.22.32-.4.66-.54,1.02-.15.36-.26.73-.33,1.11-.08.38-.11.76-.11,1.15s.04.77.11,1.15c.08.38.18.75.33,1.1.15.36.33.7.54,1.02.22.32.46.62.73.89.27.27.57.52.89.73.32.21.66.4,1.02.54.36.15.72.26,1.11.33.38.08.76.11,1.15.11ZM294.9,270.43c.36,0,.72-.03,1.07-.1.36-.07.69-.17,1.03-.31.33-.14.65-.31.95-.5.3-.2.58-.43.83-.68.26-.26.48-.53.68-.83.2-.3.37-.62.51-.95.14-.33.24-.68.31-1.03.07-.36.1-.71.1-1.07s-.04-.72-.1-1.07c-.07-.35-.18-.69-.31-1.03-.14-.33-.31-.65-.51-.95-.2-.3-.42-.58-.68-.83-.25-.26-.53-.48-.83-.68-.3-.2-.61-.37-.95-.51-.33-.14-.67-.24-1.03-.31-.35-.07-.71-.1-1.07-.1s-.71.04-1.07.1c-.35.07-.69.18-1.03.31-.33.14-.64.31-.95.51-.3.2-.57.42-.83.68-.25.25-.48.53-.68.83-.2.3-.36.61-.5.95-.14.33-.24.68-.31,1.03-.07.35-.1.71-.1,1.07s.03.72.1,1.07c.07.36.18.7.32,1.03.14.33.31.65.5.95.2.3.43.58.68.83.26.25.54.48.83.68.3.2.62.36.95.5.33.14.68.24,1.03.31.35.07.71.1,1.07.1h-.03ZM281.45,256.54c.33,0,.66-.03.99-.09.32-.06.64-.16.95-.29.31-.13.6-.28.87-.46.27-.18.53-.4.77-.63.23-.23.44-.49.63-.76.18-.28.34-.57.46-.87.13-.31.23-.62.29-.95.07-.32.1-.65.1-.99s-.03-.66-.1-.98c-.06-.33-.16-.64-.29-.95-.13-.31-.28-.59-.46-.87-.18-.28-.39-.53-.63-.77-.23-.23-.49-.45-.77-.63-.27-.18-.57-.34-.87-.47-.31-.13-.62-.22-.95-.29-.32-.06-.65-.09-.99-.09s-.66.03-.98.09c-.32.07-.64.16-.95.29-.31.13-.6.28-.87.47-.27.18-.53.39-.77.63-.23.23-.44.49-.63.77-.18.27-.34.56-.47.87-.13.31-.22.62-.29.95-.06.32-.09.65-.09.98s.03.66.09.99c.07.32.16.64.29.95.13.31.28.6.46.87s.4.53.63.77c.23.23.49.44.77.63.27.18.56.34.87.47.31.13.62.22.95.28.32.06.65.1.98.09ZM267.99,242.66c.3,0,.6-.03.9-.09s.59-.14.87-.26c.28-.12.55-.26.8-.43.25-.17.49-.36.7-.57.21-.22.41-.45.58-.7.17-.25.31-.52.43-.8.12-.28.2-.57.26-.86.06-.3.09-.6.09-.9s-.03-.6-.09-.9-.15-.59-.27-.87c-.11-.28-.26-.55-.42-.8-.17-.25-.36-.49-.58-.7-.22-.21-.45-.41-.7-.57-.25-.17-.52-.32-.8-.43-.28-.11-.57-.2-.87-.26-.3-.06-.6-.09-.9-.09s-.6.03-.9.09c-.3.06-.59.14-.87.26-.28.12-.54.26-.8.43-.25.17-.49.36-.7.58-.22.22-.41.45-.58.7-.17.25-.31.52-.43.8-.12.28-.2.57-.27.87-.06.3-.09.6-.09.9s.03.61.09.9c.06.3.15.59.27.87.12.28.26.54.43.8.17.25.36.49.58.7.22.22.45.41.7.58.25.17.52.31.8.43.28.12.57.2.87.26.3.06.6.09.9.09h0ZM254.53,228.77c.55,0,1.09-.11,1.6-.32.51-.21.96-.52,1.35-.91.4-.39.7-.85.91-1.36.21-.51.32-1.04.32-1.6s-.11-1.09-.32-1.6c-.21-.51-.51-.96-.91-1.35-.39-.4-.84-.7-1.35-.91s-1.05-.32-1.6-.32-1.09.11-1.6.32-.97.51-1.36.91c-.39.39-.7.84-.91,1.35-.21.51-.32,1.05-.32,1.6s.11,1.09.32,1.6c.21.51.52.97.91,1.36s.85.7,1.36.91c.51.21,1.04.32,1.6.32ZM241.07,214.88c.5,0,.98-.1,1.44-.29.46-.19.87-.46,1.22-.82.36-.36.63-.76.82-1.22.19-.46.29-.95.29-1.44s-.1-.98-.29-1.44c-.19-.46-.46-.87-.82-1.22-.36-.36-.76-.63-1.22-.82-.46-.19-.95-.29-1.44-.29s-.98.1-1.44.29c-.46.19-.87.46-1.22.82-.36.36-.63.76-.82,1.22-.19.46-.29.95-.29,1.44s.09.98.29,1.44c.19.46.46.87.82,1.22.35.36.76.63,1.22.82.46.19.95.29,1.44.29ZM227.61,200.99c.45,0,.87-.09,1.29-.26.41-.17.77-.41,1.09-.72.32-.32.56-.68.73-1.09.17-.41.26-.84.26-1.28s-.09-.88-.26-1.29c-.17-.41-.41-.77-.72-1.09-.32-.32-.68-.56-1.09-.73-.41-.17-.84-.26-1.28-.25-.45,0-.87.09-1.29.26-.41.17-.77.41-1.09.73-.31.32-.55.68-.72,1.09-.17.41-.25.84-.25,1.28s.09.87.26,1.28c.17.41.41.77.72,1.08.32.32.68.56,1.08.73.41.17.84.26,1.28.26ZM214.14,187.1c.39,0,.76-.08,1.12-.23.36-.15.68-.36.95-.63.27-.27.49-.59.63-.95s.22-.73.22-1.13-.07-.76-.23-1.12c-.15-.36-.36-.68-.63-.95-.27-.27-.59-.49-.95-.63-.36-.15-.73-.23-1.12-.22-.39,0-.76.07-1.12.23-.36.15-.68.36-.95.63-.27.27-.49.59-.63.95-.15.36-.22.73-.22,1.12s.07.76.22,1.12c.15.36.36.68.64.95.27.27.59.49.95.63.36.15.73.22,1.12.22ZM348.95,285.58c-.41,0-.82.04-1.23.12-.41.08-.8.2-1.18.36-.38.16-.75.35-1.09.58-.34.23-.66.49-.95.78-.3.29-.56.61-.79.96-.23.34-.43.71-.59,1.09-.16.38-.28.78-.36,1.18-.08.41-.12.82-.13,1.23,0,.41.04.82.12,1.23.08.41.2.8.36,1.18.16.38.35.75.58,1.09.23.34.5.66.79.96.29.29.61.55.95.78.34.23.71.43,1.09.59.38.16.78.28,1.18.36s.82.12,1.23.13c.41,0,.82-.04,1.23-.12.41-.08.81-.2,1.19-.36.38-.16.75-.35,1.09-.58.34-.23.66-.49.96-.78.29-.29.55-.61.79-.95.23-.35.43-.71.59-1.09.16-.38.28-.78.36-1.18.08-.41.12-.82.12-1.23,0-.41-.04-.83-.12-1.23-.08-.41-.2-.81-.36-1.19s-.35-.75-.59-1.09c-.23-.35-.49-.67-.78-.96-.29-.3-.61-.56-.96-.79-.34-.23-.71-.42-1.09-.59-.38-.16-.78-.28-1.19-.36-.41-.08-.82-.12-1.23-.12ZM335.48,284.31c.39,0,.77-.04,1.15-.11.38-.08.75-.19,1.11-.34.36-.14.69-.33,1.02-.54.32-.21.62-.46.89-.73.27-.27.52-.57.73-.9.22-.32.4-.66.54-1.02.15-.36.26-.73.34-1.11.07-.38.11-.76.11-1.15s-.04-.77-.12-1.15c-.07-.38-.18-.75-.33-1.1-.15-.36-.33-.7-.54-1.02-.22-.32-.46-.62-.73-.89-.27-.27-.57-.52-.9-.73-.32-.22-.66-.4-1.02-.54-.36-.15-.73-.26-1.11-.33-.38-.08-.76-.11-1.15-.11s-.77.04-1.15.11c-.38.08-.75.19-1.1.34-.36.15-.7.33-1.02.54-.32.22-.62.46-.89.73-.27.27-.52.57-.73.9-.21.32-.4.66-.54,1.02-.15.36-.26.73-.34,1.11-.07.38-.11.76-.11,1.15s.04.77.11,1.15c.08.38.19.75.34,1.1.15.36.33.7.54,1.02.21.32.46.62.73.89.27.27.57.52.9.73.32.21.66.4,1.02.54.36.15.73.26,1.11.33.38.08.77.11,1.15.11ZM322.02,270.43c.36,0,.72-.03,1.07-.1.35-.07.69-.17,1.03-.31.33-.14.64-.31.95-.5.3-.2.57-.43.83-.68.25-.26.48-.53.68-.83.2-.3.37-.62.5-.95.14-.33.24-.68.31-1.03.07-.36.11-.71.11-1.07s-.04-.72-.11-1.07c-.07-.35-.17-.69-.31-1.03-.14-.33-.31-.65-.5-.95s-.43-.58-.68-.83c-.26-.26-.53-.48-.83-.68-.3-.2-.62-.37-.95-.51-.33-.14-.68-.24-1.03-.31-.35-.07-.71-.1-1.07-.1s-.72.04-1.07.1c-.35.07-.69.18-1.03.31-.33.14-.65.31-.95.51-.3.2-.58.42-.83.68-.26.25-.48.53-.68.83-.2.3-.37.61-.5.95-.14.33-.24.68-.32,1.03-.07.35-.1.71-.1,1.07s.04.71.1,1.07c.07.35.18.69.32,1.03.14.33.3.64.5.95.2.3.42.57.68.83.25.25.53.48.83.68.3.2.61.36.95.5.33.14.68.24,1.03.31.35.07.71.1,1.07.1ZM308.55,256.54c.33,0,.66-.03.99-.09.32-.06.64-.16.95-.29.31-.13.59-.28.87-.46.27-.18.53-.4.76-.63.23-.23.45-.49.63-.76.18-.28.34-.57.46-.87.13-.31.23-.62.29-.95.06-.32.1-.65.1-.99s-.04-.66-.1-.98c-.06-.33-.16-.64-.29-.95-.13-.31-.28-.59-.46-.87-.18-.28-.4-.53-.63-.77-.23-.23-.49-.45-.76-.63-.28-.18-.57-.34-.87-.47-.31-.13-.62-.22-.95-.29-.32-.06-.65-.09-.99-.09s-.66.03-.98.09c-.33.07-.64.16-.95.29-.31.13-.59.28-.87.47-.27.18-.53.39-.77.63-.23.23-.45.49-.63.77-.18.27-.34.56-.47.87-.13.31-.22.62-.29.95-.06.32-.09.65-.09.98s.03.66.09.99c.06.32.16.64.29.95.13.31.28.6.46.87.18.27.4.53.63.77.23.23.49.44.76.63.28.18.57.34.87.47.31.13.62.22.95.28.33.06.66.1.99.09ZM295.09,242.66c.3,0,.6-.03.9-.09s.59-.14.87-.26c.28-.12.54-.26.8-.43.25-.17.49-.36.7-.57s.41-.45.58-.7c.17-.25.32-.52.43-.8.11-.28.2-.57.26-.86s.09-.6.09-.9-.03-.6-.09-.9c-.06-.3-.15-.59-.27-.87-.12-.28-.26-.55-.43-.8-.17-.25-.36-.49-.57-.7-.22-.21-.45-.41-.7-.57-.25-.17-.52-.32-.8-.43-.28-.11-.57-.2-.86-.26-.3-.06-.6-.09-.9-.09s-.6.03-.9.09c-.3.06-.59.14-.87.26-.28.12-.55.26-.8.43-.25.17-.49.36-.7.58-.22.22-.41.45-.58.7-.17.25-.31.52-.43.8-.12.28-.21.57-.27.87-.06.3-.09.6-.09.9s.03.61.09.9c.06.3.15.59.27.86.11.28.26.55.42.8.17.25.36.49.58.7.22.22.45.41.7.58.25.17.52.31.8.43.28.12.57.21.86.27s.6.09.9.09ZM281.62,228.77c.55,0,1.09-.11,1.6-.32.51-.21.96-.52,1.36-.91.39-.39.69-.85.9-1.36.22-.51.32-1.04.32-1.6s-.1-1.09-.32-1.6c-.21-.51-.51-.96-.9-1.35-.4-.4-.85-.7-1.36-.91s-1.05-.32-1.6-.32-1.09.11-1.6.32-.97.51-1.36.91c-.39.39-.69.84-.91,1.35-.21.51-.32,1.05-.32,1.6s.1,1.09.32,1.6c.22.51.52.97.91,1.36s.85.7,1.36.91c.51.21,1.04.32,1.6.32ZM268.16,214.88c.5,0,.98-.1,1.44-.29.46-.19.87-.46,1.22-.82.36-.36.63-.76.82-1.22.19-.46.29-.95.29-1.44s-.09-.98-.29-1.44c-.19-.46-.46-.87-.82-1.22-.35-.36-.76-.63-1.22-.82-.46-.19-.95-.29-1.44-.29s-.98.1-1.44.29c-.46.19-.87.46-1.22.82-.35.36-.63.76-.82,1.22-.19.46-.28.95-.28,1.44,0,.5.09.98.28,1.44.19.46.46.87.82,1.22.35.36.76.63,1.22.82.46.19.95.29,1.44.29ZM254.7,200.99c.44,0,.87-.09,1.28-.26.41-.17.77-.41,1.09-.72.32-.32.56-.68.73-1.09s.26-.84.26-1.28c0-.45-.08-.88-.25-1.29-.17-.41-.41-.77-.73-1.09-.32-.32-.68-.56-1.09-.73-.41-.17-.84-.26-1.29-.25-.45,0-.87.09-1.28.26-.41.17-.77.41-1.09.73-.32.32-.56.68-.72,1.09-.17.41-.26.84-.26,1.28s.09.87.26,1.28.41.77.73,1.08c.31.32.68.56,1.08.73.41.17.84.26,1.28.26ZM241.23,187.1c.39,0,.77-.08,1.13-.23.36-.15.68-.36.95-.63.27-.27.49-.59.63-.95s.22-.73.22-1.13-.07-.76-.22-1.12c-.15-.36-.36-.68-.64-.95-.27-.27-.59-.49-.95-.63-.36-.15-.73-.23-1.13-.22-.39,0-.76.07-1.12.23-.36.15-.68.36-.95.63-.27.27-.49.59-.63.95-.15.36-.22.73-.22,1.12s.08.76.23,1.12c.15.36.36.68.63.95.27.27.59.49.95.63.36.15.73.22,1.12.22Z"/>
    </clipPath>
    <linearGradient id="linear-gradient-2" x1="323.35" y1="-2962.07" x2="16.9" y2="-2962.07" gradientTransform="translate(145.32 -1745.01) scale(.69 -.69)" gradientUnits="userSpaceOnUse">
      <stop offset="0" stop-color="#cbeddf"/>
      <stop offset=".12" stop-color="#cbeddf"/>
      <stop offset=".14" stop-color="#caecde"/>
      <stop offset=".16" stop-color="#c9ebde"/>
      <stop offset=".17" stop-color="#c9eadd"/>
      <stop offset=".19" stop-color="#c8eadd"/>
      <stop offset=".2" stop-color="#c7e9dc"/>
      <stop offset=".22" stop-color="#c7e8dc"/>
      <stop offset=".23" stop-color="#c6e8db"/>
      <stop offset=".25" stop-color="#c5e7db"/>
      <stop offset=".27" stop-color="#c5e7da"/>
      <stop offset=".28" stop-color="#c4e6da"/>
      <stop offset=".3" stop-color="#c4e5d9"/>
      <stop offset=".31" stop-color="#c3e5d9"/>
      <stop offset=".33" stop-color="#c2e4d8"/>
      <stop offset=".34" stop-color="#c2e3d8"/>
      <stop offset=".36" stop-color="#c1e3d8"/>
      <stop offset=".38" stop-color="#c1e2d7"/>
      <stop offset=".39" stop-color="#c0e1d7"/>
      <stop offset=".41" stop-color="#bfe1d6"/>
      <stop offset=".42" stop-color="#bfe0d6"/>
      <stop offset=".44" stop-color="#bedfd5"/>
      <stop offset=".45" stop-color="#bddfd5"/>
      <stop offset=".47" stop-color="#bdded4"/>
      <stop offset=".48" stop-color="#bcddd4"/>
      <stop offset=".5" stop-color="#bcddd3"/>
      <stop offset=".52" stop-color="#bbdcd3"/>
      <stop offset=".53" stop-color="#badbd2"/>
      <stop offset=".55" stop-color="#badbd2"/>
      <stop offset=".56" stop-color="#b9dad1"/>
      <stop offset=".58" stop-color="#b8d9d1"/>
      <stop offset=".59" stop-color="#b8d9d1"/>
      <stop offset=".61" stop-color="#b7d8d0"/>
      <stop offset=".62" stop-color="#b7d8d0"/>
      <stop offset=".64" stop-color="#b6d7cf"/>
      <stop offset=".66" stop-color="#b5d6cf"/>
      <stop offset=".67" stop-color="#b5d6ce"/>
      <stop offset=".69" stop-color="#b4d5ce"/>
      <stop offset=".7" stop-color="#b4d4cd"/>
      <stop offset=".72" stop-color="#b3d4cd"/>
      <stop offset=".73" stop-color="#b2d3cc"/>
      <stop offset=".75" stop-color="#b2d2cc"/>
      <stop offset=".77" stop-color="#b1d2cb"/>
      <stop offset=".78" stop-color="#b0d1cb"/>
      <stop offset=".8" stop-color="#b0d0ca"/>
      <stop offset=".81" stop-color="#afd0ca"/>
      <stop offset=".83" stop-color="#afcfc9"/>
      <stop offset=".84" stop-color="#aecec9"/>
      <stop offset=".86" stop-color="#adcec9"/>
      <stop offset=".88" stop-color="#adcdc8"/>
      <stop offset=".89" stop-color="#acccc8"/>
      <stop offset=".91" stop-color="#abccc7"/>
      <stop offset=".92" stop-color="#abcbc7"/>
      <stop offset=".94" stop-color="#aacac6"/>
      <stop offset=".95" stop-color="#aacac6"/>
      <stop offset=".97" stop-color="#a9c9c5"/>
      <stop offset=".98" stop-color="#a8c9c5"/>
      <stop offset="1" stop-color="#a8c8c4"/>
    </linearGradient>
    <clipPath id="clippath-10">
      <rect class="cls-1" x="125.59" y="118.68" width="274.23" height="373.32"/>
    </clipPath>
  </defs>
  <g id="Layer_1-2" data-name="Layer 1">
    <g>
      <g class="cls-16">
        <g>
          <path class="cls-14" d="M785.41,146.38v39.63h-39.63l-59.46,59.44,59.46,59.46h39.63v39.63h-47.56c-5.61,0-10.4-1.98-14.35-5.94l-73.33-73.31h-23.27v79.25h-39.63v-198.15h39.63v79.25h23.27l73.33-73.31c3.96-3.96,8.74-5.94,14.35-5.94h47.56Z"/>
          <path class="cls-14" d="M983.56,225.63v-79.25h39.63v158.52c0,7.27-1.78,13.91-5.33,19.94-3.54,6.03-8.33,10.82-14.35,14.38-6.03,3.54-12.68,5.31-19.94,5.31h-158.52v-39.63h158.52v-39.63h-118.9c-7.27,0-13.91-1.78-19.94-5.33-6.03-3.55-10.82-8.34-14.38-14.38-3.54-6.03-5.31-12.67-5.31-19.94v-79.25h39.63v79.25h118.9Z"/>
          <path class="cls-14" d="M1260.95,186v39.63c0,7.27-1.78,13.91-5.33,19.94-3.54,6.03-8.33,10.82-14.35,14.38-6.03,3.56-12.68,5.33-19.94,5.33h-39.65l39.65,39.63h39.63v39.63h-47.56c-5.61,0-10.4-1.98-14.35-5.94l-73.33-73.31h-23.27v79.25h-39.63v-198.15h158.52c7.26,0,13.91,1.78,19.94,5.33,6.03,3.54,10.81,8.33,14.35,14.35,3.55,6.03,5.33,12.68,5.33,19.94ZM1221.33,186h-118.9v39.63h118.9v-39.63Z"/>
          <path class="cls-14" d="M1459.1,344.53h-118.9c-7.27,0-13.91-1.77-19.94-5.31-6.03-3.55-10.82-8.34-14.38-14.38-3.54-6.03-5.31-12.67-5.31-19.94v-158.52h39.63v158.52h118.9v-158.52h39.63v158.52c0,7.27-1.78,13.91-5.33,19.94-3.54,6.03-8.33,10.82-14.35,14.38-6.03,3.54-12.68,5.31-19.94,5.31Z"/>
        </g>
      </g>
      <g class="cls-5">
        <g>
          <path class="cls-15" d="M579.57,484.1l30.45-88.46h23.63l31.05,88.46h-20.2l-14.12-42.75c-1.7-5.53-3.43-11.5-5.2-17.93-1.76-6.44-3.64-13.52-5.6-21.25h4.15c-1.94,7.73-3.74,14.83-5.41,21.29-1.66,6.47-3.31,12.43-4.98,17.88l-13.83,42.75h-19.93ZM598.62,463.86v-14.31h47.02v14.31h-47.02Z"/>
          <path class="cls-15" d="M748.43,484.1h-22.91v-15.55h22.03c5.73,0,10.53-1.03,14.38-3.08,3.86-2.06,6.76-5.23,8.7-9.49,1.94-4.26,2.91-9.65,2.91-16.17s-.97-11.86-2.91-16.09c-1.94-4.23-4.83-7.37-8.68-9.42-3.83-2.06-8.6-3.1-14.28-3.1h-22.56v-15.57h23.63c8.9,0,16.55,1.78,22.94,5.32,6.39,3.55,11.31,8.63,14.78,15.24,3.46,6.62,5.2,14.49,5.2,23.63s-1.73,17.07-5.17,23.68c-3.43,6.62-8.39,11.7-14.88,15.26-6.47,3.56-14.2,5.34-23.18,5.34ZM735.43,395.64v88.46h-18.17v-88.46h18.17Z"/>
          <path class="cls-15" d="M867.74,484.1l-30.97-88.46h20.05l14.19,42.75c1.7,5.39,3.43,11.3,5.2,17.74,1.76,6.43,3.63,13.44,5.6,21.03h-4.2c1.94-7.68,3.76-14.71,5.46-21.1,1.7-6.39,3.36-12.28,4.98-17.67l13.71-42.75h19.89l-30.28,88.46h-23.63Z"/>
          <path class="cls-15" d="M992.39,395.64v88.46h-18.17v-88.46h18.17Z"/>
          <path class="cls-15" d="M1083.03,485.41c-7.2,0-13.44-1.11-18.69-3.31-5.26-2.22-9.35-5.5-12.26-9.82-2.91-4.34-4.43-9.66-4.55-15.95h17.64c.15,3,1.01,5.55,2.55,7.63,1.54,2.07,3.61,3.62,6.22,4.67,2.6,1.05,5.59,1.57,8.97,1.57s6.08-.46,8.51-1.41c2.43-.95,4.32-2.28,5.67-3.98,1.35-1.7,2.03-3.66,2.03-5.89,0-2.01-.59-3.72-1.76-5.1-1.16-1.38-2.88-2.56-5.15-3.55-2.28-.98-5.1-1.86-8.46-2.62l-9.61-2.36c-7.76-1.82-13.77-4.7-18.03-8.63-4.26-3.94-6.39-9.12-6.39-15.55,0-5.34,1.43-10,4.29-14,2.87-4.01,6.82-7.12,11.83-9.35,5.01-2.24,10.76-3.36,17.26-3.36s12.29,1.13,17.17,3.39c4.89,2.26,8.7,5.41,11.42,9.44,2.73,4.04,4.16,8.73,4.29,14.07h-17.45c-.32-3.68-1.85-6.56-4.6-8.61-2.75-2.06-6.4-3.1-10.94-3.1-3.05,0-5.69.45-7.92,1.34-2.21.89-3.9,2.12-5.08,3.7-1.16,1.56-1.74,3.35-1.74,5.36s.62,3.86,1.86,5.27c1.25,1.4,2.98,2.57,5.17,3.51,2.19.92,4.66,1.7,7.39,2.34l8.08,1.96c3.91.88,7.49,2.04,10.75,3.48,3.27,1.43,6.09,3.18,8.46,5.25,2.38,2.05,4.2,4.48,5.46,7.3,1.27,2.81,1.91,6.02,1.91,9.61,0,5.42-1.37,10.15-4.1,14.16-2.72,4.02-6.64,7.12-11.76,9.3-5.1,2.18-11.25,3.27-18.46,3.27Z"/>
          <path class="cls-15" d="M1211.3,485.34c-7.84,0-14.89-1.79-21.15-5.39-6.25-3.61-11.18-8.79-14.81-15.55-3.61-6.77-5.41-14.93-5.41-24.46s1.8-17.77,5.41-24.56c3.62-6.78,8.56-11.98,14.81-15.57,6.26-3.61,13.31-5.41,21.15-5.41s14.87,1.81,21.1,5.41c6.23,3.59,11.16,8.79,14.78,15.57,3.62,6.79,5.44,14.97,5.44,24.56s-1.81,17.7-5.44,24.49c-3.62,6.79-8.55,11.97-14.78,15.55-6.24,3.58-13.27,5.36-21.1,5.36ZM1211.3,469.27c4.59,0,8.61-1.13,12.04-3.39,3.45-2.25,6.13-5.57,8.04-9.94,1.92-4.39,2.89-9.72,2.89-16s-.97-11.71-2.89-16.09c-1.91-4.39-4.59-7.71-8.04-9.97-3.43-2.25-7.45-3.39-12.04-3.39s-8.55,1.14-12.02,3.41c-3.47,2.28-6.16,5.6-8.08,9.97-1.93,4.38-2.89,9.73-2.89,16.07s.96,11.6,2.89,15.95c1.92,4.36,4.61,7.68,8.08,9.97,3.46,2.28,7.47,3.41,12.02,3.41Z"/>
          <path class="cls-15" d="M1307.99,484.1v-88.46h34.74c6.68,0,12.39,1.19,17.14,3.58,4.75,2.37,8.38,5.72,10.9,10.04,2.51,4.31,3.77,9.39,3.77,15.24s-1.29,10.85-3.86,15.09c-2.56,4.23-6.26,7.48-11.09,9.73-4.83,2.26-10.65,3.39-17.45,3.39h-23.34v-14.66h21.15c3.56,0,6.52-.52,8.89-1.57,2.38-1.05,4.17-2.58,5.36-4.6,1.2-2.01,1.81-4.47,1.81-7.37s-.61-5.45-1.81-7.49c-1.19-2.05-2.98-3.61-5.36-4.7-2.37-1.1-5.36-1.65-8.97-1.65h-13.71v73.44h-18.17ZM1357.44,484.1l-21.25-40.2h19.58l21.67,40.2h-20.01Z"/>
          <path class="cls-15" d="M1454.13,484.1v-33.24l-32.76-55.22h21.17l14.97,27.37c1.46,2.69,2.8,5.36,4.03,8.01,1.22,2.66,2.47,5.72,3.74,9.2h-3.98c1.22-3.53,2.41-6.63,3.58-9.3,1.17-2.67,2.48-5.31,3.91-7.92l14.47-27.37h21.08l-32.24,55.22v33.24h-17.98Z"/>
        </g>
      </g>
    </g>
    <g class="cls-8">
      <g>
        <g class="cls-6">
          <g class="cls-7">
            <g class="cls-13">
              <g class="cls-10">
                <g class="cls-9">
                  <path class="cls-3" d="M1.34,609.78h523.27V.89H1.34v608.89Z"/>
                </g>
              </g>
            </g>
          </g>
        </g>
        <g class="cls-12">
          <g class="cls-11">
            <path class="cls-2" d="M157.02,181.24v248.23h212.13v-248.23h-212.13Z"/>
          </g>
        </g>
        <g class="cls-4">
          <path class="cls-14" d="M387.16,180.81v49.67h-49.67l-74.52,74.52,74.52,74.52h49.67v49.67h-59.61c-7.05,0-13.05-2.48-18-7.45l-91.91-91.89h-29.18v99.34h-49.67v-248.38h49.67v99.34h29.18l91.91-91.89c4.96-4.97,10.96-7.45,18-7.45h59.61Z"/>
        </g>
      </g>
    </g>
  </g>
</svg>