<svg xmlns="http://www.w3.org/2000/svg" width="2000" viewBox="0 0 1500 1500" height="2000" version="1.0"><defs><clipPath id="a"><path d="M119.652 16h1260.696v1467.492H119.652zm0 0"/></clipPath><clipPath id="b"><path d="M750 16.504l630.348 366.746v733.496L750 1483.492l-630.348-366.746V383.25zm0 0"/></clipPath><clipPath id="d"><path d="M.652.504h1260.696v1466.988H.652zm0 0"/></clipPath><clipPath id="e"><path d="M631 .504l630.348 366.746v733.496L631 1467.492.652 1100.746V367.25zm0 0"/></clipPath><clipPath id="c"><path d="M0 0h1262v1468H0z"/></clipPath><clipPath id="g"><path d="M494.184 451h511.5v599h-511.5zm0 0"/></clipPath><clipPath id="h"><path d="M810.008 750.043c0 .531-.028 1.062-.078 1.594-.051.527-.13 1.054-.235 1.574-.101.523-.23 1.039-.386 1.547a15.651 15.651 0 01-.54 1.504 16.655 16.655 0 01-1.5 2.808 16.703 16.703 0 01-2.019 2.461 16.896 16.896 0 01-2.46 2.02 16.167 16.167 0 01-4.313 2.035 15.14 15.14 0 01-1.547.387c-.52.105-1.047.183-1.578.234-.528.055-1.059.078-1.59.078a16.66 16.66 0 01-1.594-.078 15.53 15.53 0 01-1.578-.234 17.465 17.465 0 01-1.543-.387 16.785 16.785 0 01-1.504-.54 15.336 15.336 0 01-1.438-.683c-.472-.25-.925-.523-1.367-.82a16.103 16.103 0 01-3.531-3.203 14.68 14.68 0 01-.95-1.281 16.167 16.167 0 01-1.5-2.809 17.154 17.154 0 01-.538-1.5 17.211 17.211 0 01-.387-1.547 16.513 16.513 0 01-.23-4.762c.054-.53.132-1.054.234-1.578a16.598 16.598 0 01.93-3.047c.203-.492.43-.968.68-1.441.253-.469.527-.922.82-1.363.297-.446.613-.871.953-1.282a16.103 16.103 0 012.254-2.25c.41-.34.836-.652 1.28-.949a16.167 16.167 0 014.309-2.035 17.899 17.899 0 011.547-.387 16.696 16.696 0 013.172-.308c.532 0 1.063.027 1.59.078a16.27 16.27 0 011.574.238 15.967 15.967 0 013.047.926 16.095 16.095 0 012.805 1.5c.441.297.867.613 1.281.95a16.05 16.05 0 012.246 2.25c.34.413.656.839.95 1.28a16.167 16.167 0 012.035 4.309 15.1 15.1 0 01.386 1.543c.106.523.184 1.047.235 1.578.05.527.078 1.059.078 1.59zm-48.668 17.293c-1 0-1.992.098-2.973.293a15.206 15.206 0 00-5.492 2.27 15.346 15.346 0 00-2.313 1.894 15.357 15.357 0 00-1.894 2.309 15.275 15.275 0 00-2.273 5.492 15.49 15.49 0 00-.29 2.972c0 1 .098 1.993.293 2.973.2.98.489 1.934.872 2.856a15.159 15.159 0 003.309 4.938 15.154 15.154 0 007.808 4.155c.98.196 1.972.29 2.972.29a15.172 15.172 0 005.824-1.176 15.113 15.113 0 004.934-3.316 14.877 14.877 0 001.887-2.313 15.401 15.401 0 001.402-2.641 15.24 15.24 0 001.137-5.832c0-1-.094-1.988-.29-2.965-.19-.98-.48-1.93-.858-2.851a15.276 15.276 0 00-1.399-2.63 15.043 15.043 0 00-1.887-2.304 15.29 15.29 0 00-2.297-1.898 15.389 15.389 0 00-2.62-1.41 15.48 15.48 0 00-2.848-.876 15.382 15.382 0 00-2.961-.3zM728.898 800.8c-.933 0-1.859.09-2.773.273a14.246 14.246 0 00-5.121 2.113 14.34 14.34 0 00-2.152 1.766 14.172 14.172 0 00-4.164 10.04c0 .933.09 1.859.269 2.773a14.23 14.23 0 006.04 9.035 14 14 0 002.456 1.312c.86.36 1.75.63 2.664.809.914.183 1.836.273 2.77.273.933 0 1.855-.093 2.77-.273a13.995 13.995 0 002.663-.813 14 14 0 002.457-1.312c.774-.52 1.493-1.11 2.149-1.766.66-.66 1.25-1.379 1.765-2.156a14.123 14.123 0 002.118-5.121c.18-.914.27-1.836.27-2.77a14.123 14.123 0 00-1.059-5.45 14.298 14.298 0 00-1.305-2.464 14.209 14.209 0 00-3.918-3.933 14.119 14.119 0 00-7.898-2.406zm-32.37 33.379a13.213 13.213 0 00-5.04 1.004c-.8.332-1.558.738-2.277 1.218a12.759 12.759 0 00-1.996 1.637 13.155 13.155 0 00-1.64 1.996 12.837 12.837 0 00-1.216 2.278 12.99 12.99 0 00-.75 2.472 12.879 12.879 0 00-.254 2.567c0 .867.082 1.722.254 2.57.168.851.418 1.672.75 2.473.328.8.735 1.558 1.215 2.277a13.173 13.173 0 003.637 3.633 13.146 13.146 0 007.316 2.222 13.214 13.214 0 005.043-1.004 13.437 13.437 0 002.278-1.218 13.13 13.13 0 003.632-3.633c.48-.719.887-1.477 1.22-2.277a13.267 13.267 0 001-5.04c0-.867-.083-1.722-.255-2.57a13.267 13.267 0 00-.746-2.472 13.08 13.08 0 00-1.219-2.278 13.13 13.13 0 00-3.633-3.633c-.722-.48-1.48-.886-2.277-1.218a13.213 13.213 0 00-5.043-1.004zm-32.442 33.465a12.11 12.11 0 00-4.649.925c-.738.305-1.437.68-2.101 1.121a12.222 12.222 0 00-3.352 3.356 11.902 11.902 0 00-1.813 4.379 12.051 12.051 0 000 4.738 11.902 11.902 0 001.813 4.379 12.222 12.222 0 003.352 3.355 12.186 12.186 0 006.75 2.047 12.11 12.11 0 004.648-.925c.739-.305 1.438-.68 2.102-1.122a12.222 12.222 0 003.351-3.355c.446-.66.817-1.363 1.122-2.098.308-.738.539-1.496.691-2.28.156-.782.234-1.571.234-2.368 0-.805-.074-1.598-.23-2.383a12.013 12.013 0 00-1.828-4.395 12.07 12.07 0 00-3.375-3.355 12.008 12.008 0 00-2.114-1.117 12.145 12.145 0 00-4.672-.902zm-32.516 33.453c-.73 0-1.453.07-2.172.21-.718.145-1.414.356-2.09.637a11.068 11.068 0 00-3.613 2.414c-.52.516-.98 1.079-1.386 1.688a11.217 11.217 0 00-1.664 4.016 11.285 11.285 0 000 4.347c.144.719.355 1.414.636 2.09a10.98 10.98 0 001.028 1.926c.406.61.867 1.172 1.386 1.687.516.52 1.078.98 1.688 1.387.61.406 1.25.75 1.926 1.027a11.129 11.129 0 004.261.852 11.129 11.129 0 004.266-.852 10.98 10.98 0 001.926-1.027c.61-.406 1.172-.867 1.687-1.387a10.988 10.988 0 002.414-3.613 11.11 11.11 0 00.637-2.09 11.275 11.275 0 000-4.347 11.217 11.217 0 00-1.664-4.016 10.842 10.842 0 00-1.387-1.688 11.068 11.068 0 00-3.613-2.414 11.129 11.129 0 00-2.09-.636 11.255 11.255 0 00-2.176-.211zm-32.441 33.465a10.06 10.06 0 00-3.86.765 10.09 10.09 0 00-1.742.934 10.026 10.026 0 00-2.785 2.781 10.126 10.126 0 00-1.508 3.637 10.13 10.13 0 00-.191 1.968 10.071 10.071 0 00.766 3.864c.254.61.566 1.191.933 1.742a9.81 9.81 0 001.254 1.527 10.072 10.072 0 005.168 2.762 10.064 10.064 0 003.934 0 10 10 0 001.894-.574c.61-.254 1.192-.563 1.742-.93a10.275 10.275 0 001.532-1.258 9.81 9.81 0 001.254-1.527 10.087 10.087 0 001.504-3.637 9.783 9.783 0 00.195-1.969 10.049 10.049 0 00-.77-3.86 9.995 9.995 0 00-3.715-4.527 10 10 0 00-5.605-1.7zm-32.442 33.464c-.597 0-1.187.059-1.773.172a9.3 9.3 0 00-1.71.52 9.39 9.39 0 00-1.575.843 9.4 9.4 0 00-1.379 1.133 9.137 9.137 0 00-2.656 6.446c.004.597.062 1.187.18 1.773.117.586.292 1.156.523 1.707.23.555.512 1.078.848 1.574a9.1 9.1 0 001.132 1.375 9.168 9.168 0 002.965 1.965 8.9 8.9 0 001.707.512 9.058 9.058 0 005.262-.543 8.958 8.958 0 002.941-1.988 8.912 8.912 0 001.125-1.387c.332-.496.61-1.024.832-1.578a9.07 9.07 0 00.512-1.711 9.29 9.29 0 00-.023-3.543 8.87 8.87 0 00-.524-1.695 9.07 9.07 0 00-3.352-4.055 9.131 9.131 0 00-1.566-.836 9.25 9.25 0 00-1.699-.512 8.968 8.968 0 00-1.77-.172zm-32.44 33.45c-.532 0-1.056.05-1.579.152a7.881 7.881 0 00-1.516.457 8.319 8.319 0 00-1.402.746 8.145 8.145 0 00-2.234 2.227 8.58 8.58 0 00-.75 1.398 8.27 8.27 0 00-.461 1.516 7.949 7.949 0 00-.157 1.578c0 .531.051 1.058.153 1.578.105.523.258 1.027.46 1.52.2.488.45.956.747 1.398a8.182 8.182 0 002.227 2.234 8.283 8.283 0 002.917 1.211c.52.102 1.043.153 1.575.156a8.22 8.22 0 001.578-.156 7.93 7.93 0 001.52-.46c.491-.204.956-.45 1.398-.747a7.954 7.954 0 002.23-2.23c.297-.442.547-.907.75-1.399.203-.488.356-.996.461-1.515a8.246 8.246 0 000-3.157 8.14 8.14 0 00-1.207-2.91 8.363 8.363 0 00-1-1.226 8.188 8.188 0 00-4.133-2.215 8.22 8.22 0 00-1.578-.156zm-32.427 33.464a7.11 7.11 0 00-2.703.532c-.43.18-.84.394-1.222.652a7.009 7.009 0 00-1.954 1.945 7.332 7.332 0 00-.656 1.22c-.176.429-.312.87-.402 1.327a7.079 7.079 0 00-.14 1.375 7.124 7.124 0 00.535 2.707c.179.426.394.836.652 1.223a7.076 7.076 0 001.949 1.95 7.2 7.2 0 002.543 1.059 7.114 7.114 0 004.082-.402 6.93 6.93 0 001.223-.654 6.978 6.978 0 001.949-1.945 6.93 6.93 0 00.652-1.223 6.9 6.9 0 00.402-1.324c.094-.457.137-.914.137-1.38 0-.464-.043-.921-.133-1.374a7.307 7.307 0 00-.402-1.324 6.762 6.762 0 00-.652-1.22 6.978 6.978 0 00-.875-1.07 7.035 7.035 0 00-2.285-1.531 7.2 7.2 0 00-1.325-.406 7.045 7.045 0 00-1.375-.137zM859.05 733.8a16.596 16.596 0 00-3.171.3 16.254 16.254 0 00-7.149 3.356 16.2 16.2 0 00-1.187 1.066c-.375.375-.734.77-1.074 1.18a15.947 15.947 0 00-1.778 2.645c-.254.468-.48.949-.687 1.441a16.283 16.283 0 00-.93 3.047c-.105.52-.187 1.047-.238 1.574a15.554 15.554 0 00-.082 1.594c-.004.531.023 1.062.074 1.594a16.33 16.33 0 00.613 3.129 16.77 16.77 0 001.215 2.945c.25.469.52.926.817 1.367.293.445.609.871.949 1.285a16.156 16.156 0 006.336 4.715c.492.207.992.387 1.5.54a16.535 16.535 0 003.125.629 16.68 16.68 0 003.187.003 18.084 18.084 0 001.578-.234c.52-.102 1.036-.23 1.547-.387a16.24 16.24 0 002.945-1.215 16.21 16.21 0 003.832-2.84c.38-.375.735-.77 1.075-1.18.336-.414.652-.84.95-1.28.296-.446.57-.9.82-1.372a15.939 15.939 0 001.219-2.941 16 16 0 00.62-6.305 16.253 16.253 0 00-.23-1.574 17.465 17.465 0 00-.387-1.543 16.095 16.095 0 00-1.215-2.934 15.853 15.853 0 00-1.762-2.645 16.05 16.05 0 00-1.066-1.179c-.375-.375-.766-.73-1.176-1.07a17.75 17.75 0 00-1.273-.95 15.56 15.56 0 00-1.363-.82c-.47-.254-.946-.48-1.434-.683a15.922 15.922 0 00-3.04-.934 16.376 16.376 0 00-3.16-.324zm-32.44 33.465a15.175 15.175 0 00-8.458 2.558 15.295 15.295 0 00-4.203 4.191 15.206 15.206 0 00-1.406 2.633 14.926 14.926 0 00-.871 2.852 15.18 15.18 0 00-.293 2.969c-.004 1 .094 1.992.289 2.972.191.98.48 1.93.863 2.856a15.064 15.064 0 003.293 4.937 15.31 15.31 0 002.305 1.899 15.314 15.314 0 005.484 2.277c.98.195 1.969.293 2.969.293a15.146 15.146 0 005.824-1.152 15.188 15.188 0 006.836-5.598 15.225 15.225 0 001.422-14.277 15.065 15.065 0 00-1.406-2.633 15.098 15.098 0 00-1.89-2.309 14.906 14.906 0 00-2.306-1.894 15.149 15.149 0 00-5.484-2.277c-.976-.2-1.969-.297-2.969-.297zm-32.442 33.464c-.93 0-1.856.09-2.77.27-.914.184-1.804.45-2.664.805a14.265 14.265 0 00-4.609 3.078 14 14 0 00-3.082 4.605c-.36.86-.629 1.75-.809 2.664a14.018 14.018 0 00-.273 2.77 14 14 0 00.27 2.77c.183.913.453 1.804.808 2.663a14 14 0 001.313 2.457 14.147 14.147 0 003.918 3.918 14.27 14.27 0 005.121 2.121 14.314 14.314 0 005.539-.003 14.07 14.07 0 002.664-.809 14.172 14.172 0 004.605-3.082 14.34 14.34 0 001.766-2.152c.515-.778.953-1.594 1.308-2.457a14.156 14.156 0 00.805-8.203c-.18-.915-.45-1.801-.808-2.66a14.075 14.075 0 00-3.074-4.602 13.904 13.904 0 00-2.15-1.762 14.122 14.122 0 00-2.448-1.312 14.194 14.194 0 00-2.66-.805 14.018 14.018 0 00-2.77-.274zm-32.441 33.45c-.864 0-1.72.086-2.57.254a13.146 13.146 0 00-4.746 1.969 13.155 13.155 0 00-3.637 3.633 13.052 13.052 0 00-1.215 2.277 13.184 13.184 0 00-1.004 5.043 13.174 13.174 0 001.004 5.039 13.127 13.127 0 004.851 5.91 13.146 13.146 0 007.317 2.222 13.184 13.184 0 0012.171-8.132 13.174 13.174 0 00.75-7.61 13.146 13.146 0 00-1.969-4.75 13.13 13.13 0 00-3.633-3.633 13.29 13.29 0 00-2.276-1.218 13.184 13.184 0 00-5.043-1.004zm-32.442 33.465a12.11 12.11 0 00-4.648.925 12.21 12.21 0 00-2.102 1.121c-.66.446-1.277.95-1.84 1.512a12.15 12.15 0 0010.96 20.508 12.287 12.287 0 002.283-.691c.734-.305 1.433-.68 2.097-1.122a12.442 12.442 0 001.844-1.511 12.35 12.35 0 001.508-1.84 12.081 12.081 0 001.816-4.383 12.041 12.041 0 000-4.738 11.902 11.902 0 00-.687-2.281 11.942 11.942 0 00-1.125-2.102 12.185 12.185 0 00-1.508-1.844 12.45 12.45 0 00-1.844-1.511 12.186 12.186 0 00-4.383-1.813c-.781-.152-1.57-.23-2.37-.23zm-32.441 33.453c-.73.004-1.453.078-2.168.226a11.41 11.41 0 00-2.086.645 11.252 11.252 0 00-3.598 2.437 11.056 11.056 0 00-2.39 3.625 10.803 10.803 0 00-.622 2.09 11.234 11.234 0 00.02 4.344c.148.715.363 1.41.645 2.086a11.233 11.233 0 002.43 3.597c.519.516 1.085.973 1.695 1.38a11.133 11.133 0 006.191 1.848 10.96 10.96 0 002.168-.22c.719-.148 1.414-.36 2.086-.64a11.375 11.375 0 001.922-1.036 11.5 11.5 0 001.683-1.39c.516-.52.973-1.082 1.38-1.692a11.095 11.095 0 001.648-4.02c.14-.714.21-1.44.21-2.171a11.333 11.333 0 00-.218-2.18 11.268 11.268 0 00-.64-2.093 11.158 11.158 0 00-4.138-4.996 11.258 11.258 0 00-4.035-1.645 11.076 11.076 0 00-2.183-.195zm-32.442 33.465c-.66 0-1.316.062-1.968.19a10.049 10.049 0 00-3.637 1.509 9.995 9.995 0 00-1.527 1.254 10.126 10.126 0 00-2.762 5.164 10.13 10.13 0 00-.192 1.968 10.071 10.071 0 00.766 3.864c.254.61.566 1.191.934 1.742a9.81 9.81 0 001.254 1.527c.468.469.976.887 1.527 1.258.55.367 1.133.676 1.746.93a10.049 10.049 0 003.86.77c.663 0 1.32-.067 1.968-.196a10.087 10.087 0 003.637-1.504 10.256 10.256 0 002.785-2.785 10.087 10.087 0 00.93-9.465 10.107 10.107 0 00-.93-1.746c-.371-.55-.79-1.059-1.258-1.527a9.995 9.995 0 00-1.527-1.254 10.279 10.279 0 00-1.742-.934 10.087 10.087 0 00-3.864-.765zm-32.441 33.464a8.97 8.97 0 00-3.48.691 8.92 8.92 0 00-1.57.84 8.902 8.902 0 00-1.38 1.133 9.1 9.1 0 00-1.133 1.375 9.221 9.221 0 00-.84 1.575 9.249 9.249 0 00-.515 1.707 8.982 8.982 0 000 3.547 9.34 9.34 0 00.516 1.707 9.131 9.131 0 001.973 2.95 9.205 9.205 0 002.95 1.973 9.32 9.32 0 001.706.514 9.011 9.011 0 003.546 0 9.249 9.249 0 001.707-.516 9.075 9.075 0 004.082-3.352 9.044 9.044 0 001.355-3.277 9.011 9.011 0 000-3.546 8.959 8.959 0 00-.515-1.707 9.221 9.221 0 00-.84-1.575 9.1 9.1 0 00-1.132-1.375 8.872 8.872 0 00-1.375-1.132 9.095 9.095 0 00-1.575-.84 8.97 8.97 0 00-3.48-.692zm-32.441 33.45c-.532 0-1.055.05-1.579.156a7.965 7.965 0 00-2.914 1.207 8.145 8.145 0 00-1.226 1.004 8.136 8.136 0 00-2.367 5.719c0 .53.054 1.054.156 1.578a8.27 8.27 0 00.46 1.515c.204.489.454.957.747 1.399a8.157 8.157 0 002.23 2.23 8.136 8.136 0 004.493 1.363 8.22 8.22 0 001.578-.156 8.179 8.179 0 002.914-1.207 8.213 8.213 0 001.226-1.008 8.012 8.012 0 001.75-2.621c.203-.492.36-.996.461-1.515a7.949 7.949 0 00.156-1.578 7.92 7.92 0 00-.156-1.579 7.892 7.892 0 00-.46-1.515 7.875 7.875 0 00-.747-1.399 7.955 7.955 0 00-2.23-2.23 8.155 8.155 0 00-1.399-.75 7.881 7.881 0 00-1.515-.457 7.92 7.92 0 00-1.578-.156zm-32.426 33.464a7.081 7.081 0 00-3.93 1.184 6.978 6.978 0 00-1.07.875 7.035 7.035 0 00-1.535 2.29c-.18.429-.313.87-.407 1.327a7.075 7.075 0 001.926 6.375 7.32 7.32 0 001.07.88 6.93 6.93 0 001.223.651c.426.18.871.313 1.324.407a7.084 7.084 0 002.758 0 6.9 6.9 0 001.324-.403 6.93 6.93 0 001.223-.652 6.978 6.978 0 001.95-1.945 6.93 6.93 0 00.652-1.223 7.114 7.114 0 00.54-2.703 7.11 7.11 0 00-.138-1.375 7 7 0 00-1.926-3.613 7.003 7.003 0 00-1.07-.88 6.762 6.762 0 00-1.219-.652 7.07 7.07 0 00-1.32-.406 7.075 7.075 0 00-1.375-.137zM924.309 733.8c-.532 0-1.063.027-1.59.078a15.37 15.37 0 00-1.578.234c-.52.102-1.036.23-1.547.387-.508.156-1.008.332-1.5.535a16.227 16.227 0 00-5.27 3.523c-.375.376-.73.77-1.07 1.18-.336.41-.652.84-.95 1.282-.292.44-.566.898-.82 1.367a16.334 16.334 0 00-1.218 2.941 17.211 17.211 0 00-.387 1.547 17.78 17.78 0 00-.234 1.574 16.678 16.678 0 00-.079 1.594c0 .531.028 1.062.079 1.594.054.527.132 1.054.234 1.574.105.523.234 1.039.387 1.547.156.508.336 1.008.539 1.5a16.185 16.185 0 004.703 6.34 16.226 16.226 0 0015.016 2.988 15.627 15.627 0 002.945-1.219 16.226 16.226 0 003.828-2.84c.375-.375.73-.77 1.07-1.18.336-.41.653-.84.95-1.28.292-.442.566-.899.82-1.368a16.167 16.167 0 001.215-2.941 16 16 0 00.703-4.715c0-.531-.028-1.063-.078-1.594a16 16 0 00-.625-3.121 16.167 16.167 0 00-1.215-2.941 17.825 17.825 0 00-.82-1.367 16.964 16.964 0 00-.95-1.282 16.162 16.162 0 00-2.254-2.25 16.227 16.227 0 00-10.305-3.688zm-32.426 33.465a15.146 15.146 0 00-5.824 1.152c-.926.383-1.801.852-2.633 1.406a14.871 14.871 0 00-2.309 1.89 15.062 15.062 0 00-1.894 2.302 15.225 15.225 0 00-2.285 11.425c.195.98.484 1.93.867 2.856a15.064 15.064 0 003.293 4.937 15.118 15.118 0 004.933 3.305 15.15 15.15 0 005.824 1.164 15.146 15.146 0 005.825-1.152 15.33 15.33 0 002.633-1.403 15.332 15.332 0 002.308-1.89 15.284 15.284 0 003.305-4.938c.383-.922.672-1.87.867-2.851.195-.98.293-1.969.297-2.969 0-1-.098-1.988-.293-2.969-.192-.98-.48-1.933-.863-2.855a14.79 14.79 0 00-1.403-2.633 15.098 15.098 0 00-1.89-2.309 15.093 15.093 0 00-2.305-1.894 15.149 15.149 0 00-5.484-2.277 14.86 14.86 0 00-2.97-.297zm-32.5 33.464c-.93 0-1.856.09-2.77.27a14.123 14.123 0 00-5.121 2.117 13.919 13.919 0 00-2.152 1.766 14 14 0 00-3.082 4.605c-.36.86-.63 1.75-.809 2.664a14.322 14.322 0 00-.277 2.77c0 .933.094 1.855.273 2.77.184.913.453 1.804.809 2.663a14 14 0 001.312 2.457 14.147 14.147 0 003.918 3.918c.774.52 1.594.957 2.453 1.313.864.355 1.75.625 2.668.809a14.314 14.314 0 005.54-.004 14.36 14.36 0 002.664-.809 14.172 14.172 0 004.605-3.082 14.34 14.34 0 001.766-2.152 14.288 14.288 0 002.117-5.121c.18-.914.27-1.84.27-2.774 0-.93-.09-1.851-.274-2.765a14.356 14.356 0 00-2.117-5.113 14.31 14.31 0 00-1.766-2.15 14.092 14.092 0 00-2.148-1.76c-.774-.52-1.59-.954-2.45-1.313a14.194 14.194 0 00-2.66-.805 14.018 14.018 0 00-2.77-.274zm-32.442 33.45c-.863 0-1.718.086-2.57.254a13.146 13.146 0 00-4.746 1.969 13.155 13.155 0 00-3.637 3.633 12.92 12.92 0 00-1.215 2.277 13.174 13.174 0 00-.75 7.61c.168.85.418 1.67.75 2.472.329.8.735 1.558 1.215 2.277a13.155 13.155 0 003.637 3.633 13.146 13.146 0 007.316 2.222 13.184 13.184 0 0012.172-8.132c.328-.801.578-1.622.75-2.473.168-.848.25-1.703.25-2.567 0-.863-.082-1.718-.25-2.566a13.37 13.37 0 00-.746-2.465 12.78 12.78 0 00-1.21-2.27 13.08 13.08 0 00-3.618-3.632 13.06 13.06 0 00-4.726-1.977c-.848-.172-1.7-.261-2.563-.265zm-32.41 33.465c-.8 0-1.59.078-2.37.234a12.15 12.15 0 00-6.223 3.324 12.185 12.185 0 00-1.508 1.844c-.446.66-.82 1.363-1.125 2.098a12.198 12.198 0 00-.926 4.652 12.198 12.198 0 00.926 4.648c.304.735.68 1.438 1.125 2.098.441.664.945 1.277 1.508 1.844a12.15 12.15 0 0019.82-13.242 12.186 12.186 0 00-1.121-2.102 12.451 12.451 0 00-1.512-1.844 12.451 12.451 0 00-1.844-1.511 12.16 12.16 0 00-4.379-1.813 12.412 12.412 0 00-2.37-.23zm-32.441 33.453c-.735 0-1.457.07-2.176.21-.719.145-1.414.356-2.09.637a11.068 11.068 0 00-3.613 2.414c-.52.516-.98 1.079-1.387 1.688a11.217 11.217 0 00-1.664 4.016 11.285 11.285 0 000 4.347c.145.719.356 1.414.637 2.09a10.98 10.98 0 001.027 1.926c.406.61.867 1.172 1.387 1.687a10.98 10.98 0 003.613 2.414 11.129 11.129 0 004.266.852 11.129 11.129 0 004.262-.852 10.98 10.98 0 001.925-1.027c.61-.406 1.172-.867 1.688-1.387a10.988 10.988 0 002.414-3.613 11.129 11.129 0 00-6.004-14.55 11.18 11.18 0 00-2.086-.638 10.978 10.978 0 00-2.172-.214zm-32.414 33.465a9.962 9.962 0 00-3.86.766 10.126 10.126 0 00-4.53 3.714 9.974 9.974 0 00-.93 1.746 10.049 10.049 0 00-.77 3.86 10.087 10.087 0 001.7 5.605 10.256 10.256 0 002.785 2.785 10.1 10.1 0 001.745.93 10.075 10.075 0 005.828.574 9.962 9.962 0 001.891-.574 10.107 10.107 0 001.746-.93 10.243 10.243 0 001.528-1.258 9.81 9.81 0 001.254-1.527 10.087 10.087 0 000-11.21 9.995 9.995 0 00-1.254-1.528 10.126 10.126 0 00-5.164-2.762 10.13 10.13 0 00-1.97-.191zm-32.442 33.464a9.38 9.38 0 00-1.777.172 9.095 9.095 0 00-4.66 2.496c-.422.426-.8.883-1.133 1.383a9.202 9.202 0 00-1.351 3.285 8.759 8.759 0 00-.172 1.778c0 .597.058 1.187.18 1.773a8.97 8.97 0 001.366 3.281c.333.496.711.953 1.137 1.375.426.422.887.797 1.383 1.13a9.07 9.07 0 006.84 1.332 8.993 8.993 0 001.707-.528 8.958 8.958 0 001.57-.848 9.151 9.151 0 002.5-2.527 9.077 9.077 0 001.504-5.067 9.244 9.244 0 00-.183-1.765 9.168 9.168 0 00-.528-1.695 8.495 8.495 0 00-.844-1.563 9.045 9.045 0 00-2.503-2.492 9.072 9.072 0 00-5.035-1.52zm-32.414 33.45c-.53 0-1.054.05-1.578.156a7.965 7.965 0 00-2.914 1.207 7.924 7.924 0 00-1.223 1.004 7.98 7.98 0 00-1.753 2.625 8.179 8.179 0 00-.461 1.515 8.22 8.22 0 00-.157 1.578c0 .532.055 1.055.157 1.579a8.27 8.27 0 00.46 1.515 7.95 7.95 0 001.754 2.621c.375.375.782.711 1.223 1.008.442.293.91.543 1.399.746a8.27 8.27 0 001.515.461 8.25 8.25 0 001.578.156 8.22 8.22 0 001.578-.156 8.179 8.179 0 002.914-1.207 8.213 8.213 0 001.227-1.008 8.012 8.012 0 001.75-2.621c.203-.492.36-.996.461-1.515a7.949 7.949 0 00.156-1.578 7.92 7.92 0 00-.156-1.579 7.892 7.892 0 00-.46-1.515 7.874 7.874 0 00-.747-1.399 7.955 7.955 0 00-2.23-2.23 8.155 8.155 0 00-1.399-.75 7.881 7.881 0 00-1.516-.457 7.92 7.92 0 00-1.578-.156zm-32.425 33.464a7.081 7.081 0 00-3.93 1.184 7.003 7.003 0 00-1.95 1.945 7.055 7.055 0 00-.656 1.22c-.18.429-.312.87-.402 1.327-.094.453-.14.914-.14 1.375a7.124 7.124 0 00.535 2.707 7.07 7.07 0 002.597 3.172 7.2 7.2 0 002.547 1.059c.457.09.914.136 1.379.136a7.114 7.114 0 002.703-.539 6.93 6.93 0 001.223-.652 6.978 6.978 0 001.949-1.945 6.93 6.93 0 00.652-1.223 7.114 7.114 0 00.54-2.703 7.084 7.084 0 00-2.075-5 7.197 7.197 0 00-1.07-.879 7.233 7.233 0 00-1.227-.652 7.175 7.175 0 00-1.324-.399 7.15 7.15 0 00-1.383-.133zM989.582 733.8c-.531 0-1.062.027-1.59.078a15.37 15.37 0 00-1.578.234c-.523.102-1.039.23-1.547.387-.508.156-1.008.332-1.5.535-.492.207-.972.434-1.441.684-.469.25-.926.523-1.367.82a16.103 16.103 0 00-2.46 2.02 16.103 16.103 0 00-2.841 3.828c-.25.468-.477.949-.68 1.441-.203.492-.383.992-.539 1.5a17.211 17.211 0 00-.387 1.547c-.105.52-.183 1.047-.234 1.574a17.01 17.01 0 00-.078 1.594c0 .531.027 1.062.078 1.594.05.527.129 1.054.234 1.574.106.523.235 1.039.387 1.547.156.508.336 1.008.54 1.5a16.167 16.167 0 001.5 2.808 16.103 16.103 0 002.02 2.46 15.722 15.722 0 002.46 2.02c.441.298.898.571 1.367.821s.949.477 1.441.684c.492.203.992.383 1.5.535a15.14 15.14 0 001.547.387 15.37 15.37 0 001.578.234c.528.05 1.059.078 1.59.078.531 0 1.063-.027 1.594-.078.527-.05 1.054-.129 1.574-.234a14.82 14.82 0 001.547-.387 15.188 15.188 0 001.5-.535 17.27 17.27 0 001.441-.684c.469-.25.926-.523 1.367-.82.442-.293.872-.61 1.282-.95.41-.335.804-.69 1.18-1.07.378-.375.734-.77 1.07-1.18.34-.41.656-.84.949-1.28a16.2 16.2 0 001.504-2.809c.203-.492.383-.992.535-1.5a14.92 14.92 0 00.387-1.547c.105-.52.183-1.047.234-1.574.055-.532.078-1.063.078-1.594 0-.531-.023-1.063-.078-1.594a15.295 15.295 0 00-.234-1.574 14.92 14.92 0 00-.387-1.547 15.938 15.938 0 00-1.219-2.941c-.25-.469-.523-.926-.82-1.367-.293-.442-.61-.872-.95-1.282-.335-.41-.69-.804-1.07-1.18a16.103 16.103 0 00-3.828-2.84 17.37 17.37 0 00-1.441-.683 16.26 16.26 0 00-3.047-.922 15.295 15.295 0 00-1.574-.234 16.743 16.743 0 00-1.594-.078zm-32.426 33.465a15.146 15.146 0 00-5.824 1.152c-.926.383-1.805.852-2.633 1.406a14.871 14.871 0 00-2.308 1.89 15.062 15.062 0 00-1.895 2.302 15.199 15.199 0 00-2.277 5.484c-.2.98-.297 1.973-.297 2.969 0 1 .098 1.992.289 2.972.195.98.484 1.93.863 2.856a15.259 15.259 0 003.297 4.938c.703.71 1.473 1.34 2.3 1.898a15.206 15.206 0 002.634 1.406c.922.383 1.875.672 2.851.871.98.195 1.973.293 2.969.293a15.185 15.185 0 005.828-1.152 15.33 15.33 0 002.633-1.403 15.31 15.31 0 004.203-4.195 15.206 15.206 0 001.406-2.633 15.122 15.122 0 001.164-5.82 15.146 15.146 0 00-1.152-5.824 15.047 15.047 0 00-1.402-2.633 15.332 15.332 0 00-1.89-2.309 15.284 15.284 0 00-4.935-3.304 15.237 15.237 0 00-2.855-.867 14.86 14.86 0 00-2.969-.297zm-32.441 33.464c-.934 0-1.856.09-2.774.27-.914.184-1.8.45-2.664.805-.859.36-1.68.793-2.457 1.312a14.106 14.106 0 00-2.152 1.766 14.258 14.258 0 00-3.082 4.605 14.36 14.36 0 00-.809 2.664 14.018 14.018 0 00-.273 2.77c0 .933.09 1.855.273 2.77a14.121 14.121 0 002.118 5.12c.52.774 1.109 1.493 1.765 2.153a14.34 14.34 0 002.153 1.765 14 14 0 002.457 1.313c.859.355 1.75.625 2.664.809a14.344 14.344 0 005.543-.004 14.156 14.156 0 007.27-3.891 14.315 14.315 0 003.073-4.61 14.145 14.145 0 001.075-5.437c0-.93-.09-1.851-.274-2.765a14.106 14.106 0 00-2.117-5.113 14.284 14.284 0 00-1.762-2.15 14.284 14.284 0 00-4.601-3.073 14.02 14.02 0 00-2.66-.805 14.008 14.008 0 00-2.766-.274zm-32.442 33.45a13.186 13.186 0 00-5.03 1.023 13.148 13.148 0 00-4.263 2.871 13.233 13.233 0 00-3.578 6.75 13.12 13.12 0 00.016 5.133c.172.848.422 1.672.754 2.469a13.237 13.237 0 002.863 4.262 12.949 12.949 0 002 1.632c.719.48 1.477.883 2.278 1.211a13.17 13.17 0 005.035.996 13.202 13.202 0 007.313-2.227 13.319 13.319 0 001.991-1.64c.61-.61 1.157-1.277 1.633-1.996a12.97 12.97 0 001.215-2.273 13.174 13.174 0 00-.004-10.09 13.392 13.392 0 00-1.226-2.285 13.247 13.247 0 00-3.652-3.637 13.322 13.322 0 00-2.286-1.211 12.849 12.849 0 00-2.48-.742 12.984 12.984 0 00-2.579-.246zm-32.441 33.465c-.8 0-1.59.078-2.371.234-.781.156-1.543.387-2.281.691-.735.305-1.434.68-2.098 1.121-.664.446-1.277.95-1.844 1.512a12.185 12.185 0 00-1.508 1.844c-.445.66-.82 1.363-1.125 2.098a12.198 12.198 0 00-.925 4.652 12.198 12.198 0 00.926 4.648c.304.735.68 1.438 1.124 2.102.442.66.946 1.273 1.508 1.84a12.258 12.258 0 003.942 2.633c.738.304 1.5.535 2.28.69a12.05 12.05 0 004.74 0 12.198 12.198 0 004.382-1.812 12.42 12.42 0 001.84-1.511 12.624 12.624 0 001.512-1.84 12.198 12.198 0 001.816-9.121 12.198 12.198 0 00-1.813-4.383 12.21 12.21 0 00-3.351-3.356 12.331 12.331 0 00-2.102-1.12c-.738-.305-1.5-.536-2.28-.692a12.412 12.412 0 00-2.372-.23zm-32.441 33.453c-.735 0-1.457.07-2.176.21a11.217 11.217 0 00-4.016 1.665c-.61.406-1.172.87-1.687 1.386a11.068 11.068 0 00-2.414 3.614 11.217 11.217 0 00-.637 2.09 11.285 11.285 0 000 4.347c.144.719.355 1.414.637 2.09a11.068 11.068 0 002.414 3.613c.515.52 1.078.98 1.687 1.387a11.217 11.217 0 004.016 1.664c.719.14 1.441.215 2.176.215a11.129 11.129 0 004.262-.852 10.98 10.98 0 001.925-1.027c.61-.406 1.172-.867 1.688-1.387.52-.515.98-1.078 1.386-1.687.407-.61.75-1.25 1.032-1.926a11.249 11.249 0 00.847-4.262c0-.734-.07-1.457-.215-2.176a11.106 11.106 0 00-.629-2.09 11.3 11.3 0 00-1.03-1.929 10.842 10.842 0 00-1.387-1.688c-.516-.52-1.079-.98-1.688-1.386a10.98 10.98 0 00-1.926-1.028 10.957 10.957 0 00-2.093-.632 10.662 10.662 0 00-2.172-.211zm-32.442 33.465a10.071 10.071 0 00-3.863.765 10.236 10.236 0 00-3.274 2.188 9.995 9.995 0 00-2.183 3.273 10.049 10.049 0 00-.77 3.86c0 .663.063 1.32.196 1.968a10.087 10.087 0 006.03 7.352 10 10 0 001.895.574 10.065 10.065 0 003.934 0 10.072 10.072 0 007.355-6.031 10.087 10.087 0 000-7.723 10.126 10.126 0 00-2.187-3.273 9.942 9.942 0 00-1.531-1.254 10 10 0 00-5.602-1.7zm-32.441 33.464a8.932 8.932 0 00-3.48.691 9.106 9.106 0 00-2.953 1.969 9.303 9.303 0 00-1.13 1.38 8.955 8.955 0 00-.84 1.574 8.97 8.97 0 00-.52 1.707 8.982 8.982 0 000 3.547c.118.585.29 1.152.52 1.707a9.106 9.106 0 001.969 2.95 9.182 9.182 0 002.953 1.971 9.21 9.21 0 001.703.516 9.05 9.05 0 003.551 0 9.21 9.21 0 001.703-.516 9.095 9.095 0 001.575-.843 9.106 9.106 0 001.379-1.13 9.106 9.106 0 001.968-2.948 9.056 9.056 0 00.52-5.254 8.97 8.97 0 00-.52-1.707 8.955 8.955 0 00-.84-1.575 9.303 9.303 0 00-1.129-1.379 9.106 9.106 0 00-2.953-1.968 8.932 8.932 0 00-3.476-.692zm-32.446 33.45a7.91 7.91 0 00-1.574.156 7.918 7.918 0 00-2.914 1.207 7.954 7.954 0 00-2.23 2.23 7.893 7.893 0 00-.75 1.399 8.179 8.179 0 00-.461 1.515 8.216 8.216 0 000 3.157 8.031 8.031 0 001.21 2.914 8.213 8.213 0 002.23 2.23c.443.293.907.543 1.396.746.492.203.996.356 1.52.461a8.21 8.21 0 001.573.156 8.22 8.22 0 001.579-.156 8.217 8.217 0 001.52-.46 8.247 8.247 0 001.394-.747 8.213 8.213 0 001.226-1.008c.375-.375.711-.78 1.004-1.222a8.031 8.031 0 001.363-4.492c0-.532-.05-1.06-.152-1.579a8.179 8.179 0 00-.46-1.515 7.893 7.893 0 00-.75-1.399 7.954 7.954 0 00-2.231-2.23 7.978 7.978 0 00-1.395-.746 7.93 7.93 0 00-1.52-.461 7.92 7.92 0 00-1.577-.156zm-32.425 33.464a7.11 7.11 0 00-2.703.532 7.197 7.197 0 00-2.297 1.527 7.003 7.003 0 00-.88 1.07 7.332 7.332 0 00-.655 1.22 7.136 7.136 0 00-.54 2.702 7.124 7.124 0 00.531 2.707c.18.426.395.836.653 1.223a7.137 7.137 0 001.949 1.95 7.2 7.2 0 002.543 1.059 7.084 7.084 0 007.91-4.223 7.5 7.5 0 00.403-1.325 7.11 7.11 0 00.133-1.38 7.01 7.01 0 00-1.188-3.918 6.756 6.756 0 00-.875-1.07 7.035 7.035 0 00-2.285-1.531 7.109 7.109 0 00-1.324-.406 7.045 7.045 0 00-1.375-.137zm63.746-332.558a15.178 15.178 0 00-5.832 1.137 15.22 15.22 0 00-4.95 3.28 15.173 15.173 0 00-3.316 4.926c-.387.922-.68 1.876-.879 2.852-.195.98-.297 1.973-.3 2.969a15.178 15.178 0 001.136 5.832c.383.922.848 1.8 1.399 2.637a15.535 15.535 0 001.886 2.312 15.32 15.32 0 004.926 3.317c.922.382 1.875.675 2.856.875a15.43 15.43 0 002.968.3 15.138 15.138 0 005.828-1.14 14.942 14.942 0 002.637-1.399 15.08 15.08 0 002.313-1.886 15.32 15.32 0 001.898-2.301 14.81 14.81 0 001.414-2.63 15.134 15.134 0 001.176-5.82c.004-1-.09-1.988-.281-2.968a15.5 15.5 0 00-.86-2.856 15.27 15.27 0 00-3.281-4.945 15.29 15.29 0 00-2.297-1.898 14.913 14.913 0 00-2.625-1.414 14.853 14.853 0 00-2.851-.875c-.977-.2-1.97-.301-2.965-.305zm-32.442-31.418c-.933 0-1.855.09-2.77.27a14.096 14.096 0 00-5.12 2.113 14.178 14.178 0 00-6.047 9.03c-.184.915-.274 1.84-.274 2.77a14.156 14.156 0 001.078 5.438 14.211 14.211 0 003.075 4.605 14.172 14.172 0 0010.039 4.164c.93 0 1.855-.09 2.77-.273a14.145 14.145 0 009.035-6.035c.52-.774.957-1.594 1.312-2.453.36-.864.629-1.75.809-2.664.183-.914.273-1.836.273-2.77 0-.933-.09-1.86-.273-2.773a14.14 14.14 0 00-2.125-5.121 13.984 13.984 0 00-1.77-2.153c-.66-.66-1.379-1.25-2.156-1.765a14 14 0 00-2.457-1.313 14.078 14.078 0 00-5.441-1.07zm-32.414-31.418a13.229 13.229 0 00-5.04 1c-.8.332-1.557.738-2.276 1.219a13.155 13.155 0 00-3.637 3.633c-.48.722-.887 1.48-1.215 2.277-.332.8-.582 1.625-.75 2.472a12.889 12.889 0 00-.254 2.57c0 .864.082 1.723.254 2.571.168.848.418 1.672.75 2.469.328.8.735 1.558 1.215 2.277.48.719 1.028 1.387 1.64 1.996.61.614 1.274 1.16 1.997 1.64.719.481 1.476.888 2.277 1.216a13.213 13.213 0 005.04 1.004 13.213 13.213 0 007.32-2.22 13.155 13.155 0 003.632-3.636c.48-.719.887-1.476 1.22-2.277a13.229 13.229 0 000-10.082 13.436 13.436 0 00-1.22-2.278 13.367 13.367 0 00-1.636-1.996 13.367 13.367 0 00-1.996-1.636c-.723-.48-1.48-.887-2.278-1.22-.8-.327-1.625-.577-2.472-.75a13.21 13.21 0 00-2.57-.25zm-32.511-31.434a12.198 12.198 0 00-6.75 2.047 12.21 12.21 0 00-3.356 3.352 12.186 12.186 0 00-2.047 6.75 12.16 12.16 0 009.781 11.918 12.351 12.351 0 004.739 0 12.198 12.198 0 002.281-.692 12.17 12.17 0 002.098-1.125 12.222 12.222 0 003.355-3.352 12.186 12.186 0 001.125-11.402 12.331 12.331 0 00-1.12-2.101 12.222 12.222 0 00-3.356-3.352 12.186 12.186 0 00-4.38-1.812 12.105 12.105 0 00-2.37-.23zM631.57 576.71c-.73 0-1.453.07-2.172.21-.718.145-1.414.356-2.09.638-.675.277-1.32.62-1.925 1.027-.61.41-1.172.871-1.692 1.387a11.267 11.267 0 00-2.414 3.617 11.414 11.414 0 00-.632 2.09 10.94 10.94 0 00-.211 2.175c0 .73.07 1.457.214 2.172a11.12 11.12 0 003.05 5.703c.52.52 1.083.98 1.693 1.387.609.406 1.25.75 1.925 1.028a10.92 10.92 0 002.09.632c.719.145 1.446.215 2.176.211a11.129 11.129 0 006.188-1.883 10.885 10.885 0 001.687-1.386 11.073 11.073 0 002.414-3.617 11.2 11.2 0 00.629-2.094c.145-.715.215-1.442.21-2.172 0-.73-.07-1.457-.21-2.172a11.129 11.129 0 00-.637-2.09 10.98 10.98 0 00-1.027-1.926 11.461 11.461 0 00-1.387-1.687 11.435 11.435 0 00-1.687-1.383c-.61-.406-1.25-.746-1.926-1.027a11.194 11.194 0 00-4.266-.84zm-32.441-31.434a10.06 10.06 0 00-3.86.766 10.09 10.09 0 00-1.742.934 10.026 10.026 0 00-2.785 2.785 10.09 10.09 0 00-.933 1.742 10.06 10.06 0 00-.766 3.86 10.071 10.071 0 00.766 3.863 10.236 10.236 0 002.187 3.273c.469.465.98.887 1.531 1.254a9.85 9.85 0 001.743.93 10 10 0 001.894.574 10.064 10.064 0 003.934 0 10 10 0 001.894-.574 9.949 9.949 0 001.742-.93 10.026 10.026 0 002.785-2.785c.368-.551.68-1.133.93-1.742a10 10 0 00.574-1.895 9.783 9.783 0 00.196-1.969c0-.66-.063-1.316-.196-1.965a10 10 0 00-.574-1.894 9.812 9.812 0 00-.93-1.742 10.026 10.026 0 00-2.785-2.785 10 10 0 00-5.605-1.7zm-32.442-31.418a9.37 9.37 0 00-1.773.172 9.056 9.056 0 00-1.707.52 8.92 8.92 0 00-1.57.84 9.075 9.075 0 00-3.867 5.79 8.982 8.982 0 000 3.546 9.01 9.01 0 00.52 1.707 9.106 9.106 0 001.969 2.95 9.205 9.205 0 002.95 1.973 9.34 9.34 0 001.705.514 9.04 9.04 0 003.55 0 9.21 9.21 0 001.704-.516 9.095 9.095 0 001.574-.843 9.303 9.303 0 001.38-1.13 9.106 9.106 0 001.968-2.948 9.007 9.007 0 00.691-3.48c0-.599-.058-1.188-.176-1.774a8.97 8.97 0 00-.52-1.707 9.075 9.075 0 00-3.348-4.078 8.92 8.92 0 00-1.569-.84 8.97 8.97 0 00-1.707-.52 8.982 8.982 0 00-1.774-.176zm-32.44-31.418a7.664 7.664 0 00-1.579.153 8.046 8.046 0 00-4.145 2.207 8.2 8.2 0 00-1.007 1.222 8.435 8.435 0 00-.75 1.399 8.179 8.179 0 00-.461 1.515 7.92 7.92 0 00-.157 1.579c0 .53.051 1.058.153 1.578a8.179 8.179 0 002.21 4.144c.376.375.782.711 1.223 1.004a8.031 8.031 0 002.918 1.211 8.193 8.193 0 003.153.004 8.136 8.136 0 002.918-1.207 8.213 8.213 0 001.226-1.008 7.941 7.941 0 001.004-1.222 8.031 8.031 0 001.363-4.497c0-.527-.05-1.054-.152-1.574a8.27 8.27 0 00-.46-1.515 7.84 7.84 0 00-.747-1.395 7.954 7.954 0 00-2.227-2.23 7.725 7.725 0 00-1.394-.75 8.14 8.14 0 00-1.512-.461 7.92 7.92 0 00-1.578-.157zm-32.427-31.42a7.43 7.43 0 00-1.379.132 7.1 7.1 0 00-1.324.403 7.034 7.034 0 00-3.832 3.816 7.187 7.187 0 00-.543 2.703A7.114 7.114 0 00495.93 462c.257.387.55.742.879 1.07a7.017 7.017 0 003.613 1.938 7.114 7.114 0 002.758.004 7.097 7.097 0 003.617-1.934 7.003 7.003 0 001.531-2.293 6.66 6.66 0 00.402-1.324 7.07 7.07 0 00.004-2.754 7.035 7.035 0 00-1.055-2.543 6.978 6.978 0 00-.874-1.07 7.166 7.166 0 00-1.067-.88 7.312 7.312 0 00-1.218-.651 7.187 7.187 0 00-2.7-.543zm324.79 251.363a15.138 15.138 0 00-5.82 1.152c-.927.38-1.802.848-2.634 1.402a15.098 15.098 0 00-2.308 1.891 15.062 15.062 0 00-1.895 2.3 15.111 15.111 0 00-2.277 5.48c-.2.982-.297 1.97-.297 2.97a15.142 15.142 0 001.148 5.824 15.098 15.098 0 003.29 4.941 14.83 14.83 0 002.3 1.895 14.894 14.894 0 002.625 1.41 15.172 15.172 0 008.79.887c.98-.191 1.933-.48 2.855-.86a15.17 15.17 0 002.633-1.398 15.535 15.535 0 002.312-1.886 15.155 15.155 0 003.309-4.926 15.222 15.222 0 001.175-5.82 15.181 15.181 0 00-1.144-5.832 15.401 15.401 0 00-1.402-2.641 15.32 15.32 0 00-1.891-2.313 15.102 15.102 0 00-4.938-3.309 15 15 0 00-2.859-.87 14.87 14.87 0 00-2.973-.297zm-32.442-3.043a14.3 14.3 0 002.77-.27 14.27 14.27 0 005.12-2.12 14.6 14.6 0 002.153-1.766 14.315 14.315 0 003.074-4.61c.356-.86.625-1.75.809-2.664.18-.914.273-1.836.273-2.77a14.322 14.322 0 00-1.086-5.433 13.93 13.93 0 00-1.312-2.453 14.147 14.147 0 00-6.375-5.227 14.36 14.36 0 00-2.664-.808 14.314 14.314 0 00-5.54.004c-.913.183-1.804.453-2.663.812-.86.356-1.68.793-2.454 1.313a14.122 14.122 0 00-3.914 3.922c-.52.773-.953 1.593-1.308 2.457a14.07 14.07 0 00-1.078 5.433c0 .934.09 1.856.27 2.77.183.914.452 1.8.808 2.664.355.86.793 1.68 1.312 2.453a13.889 13.889 0 001.766 2.148c.66.66 1.375 1.25 2.152 1.766a14.211 14.211 0 005.117 2.113c.914.18 1.84.27 2.77.266zm-32.441-33.45a13.223 13.223 0 005.046-1.003 13.155 13.155 0 005.914-4.863c.481-.72.887-1.481 1.22-2.282.327-.8.577-1.625.745-2.476.168-.848.25-1.707.246-2.57 0-.868-.086-1.723-.257-2.575a13.089 13.089 0 00-1.98-4.75 13.234 13.234 0 00-3.648-3.629 13.144 13.144 0 00-7.333-2.195 13.19 13.19 0 00-2.57.262c-.852.171-1.676.425-2.473.761a13.216 13.216 0 00-5.898 4.883 13.304 13.304 0 00-1.208 2.285c-.324.801-.57 1.63-.738 2.477a13.266 13.266 0 00.027 5.137 13.149 13.149 0 001.98 4.722 13.305 13.305 0 001.638 1.985 13.345 13.345 0 001.996 1.629 13.19 13.19 0 004.734 1.953c.844.168 1.7.25 2.559.25zm-32.442-33.464a12.16 12.16 0 006.75-2.047 12.21 12.21 0 001.844-1.512 11.965 11.965 0 001.508-1.84c.445-.664.82-1.363 1.125-2.101a12.11 12.11 0 000-9.297 11.942 11.942 0 00-1.125-2.102 11.965 11.965 0 00-1.508-1.84 12.205 12.205 0 00-3.945-2.637 12.16 12.16 0 00-2.278-.69 12.382 12.382 0 00-2.37-.231c-.798 0-1.587.078-2.372.23a12.205 12.205 0 00-6.219 3.328 12.222 12.222 0 00-1.511 1.84 12.186 12.186 0 00-1.125 11.403c.304.734.68 1.437 1.12 2.101.442.664.946 1.278 1.512 1.84a12.062 12.062 0 003.941 2.633 12.105 12.105 0 004.652.922zm-32.441-33.45c.734 0 1.457-.07 2.176-.21a11.414 11.414 0 002.09-.633 11.043 11.043 0 003.617-2.41c.52-.52.98-1.082 1.39-1.688a11.217 11.217 0 001.668-4.016 11.245 11.245 0 00.004-4.348 11.546 11.546 0 00-.633-2.093 11.265 11.265 0 00-2.414-3.617 11.714 11.714 0 00-1.687-1.387 11.217 11.217 0 00-4.016-1.664 11.245 11.245 0 00-4.348-.004c-.718.145-1.418.356-2.093.637a10.98 10.98 0 00-1.926 1.027c-.61.407-1.172.867-1.688 1.387a10.79 10.79 0 00-1.386 1.688c-.407.609-.75 1.25-1.032 1.925a10.92 10.92 0 00-.632 2.09 10.988 10.988 0 00-.215 2.176c0 .73.07 1.453.215 2.172.14.715.351 1.41.632 2.086.278.676.621 1.32 1.028 1.926a11.04 11.04 0 001.383 1.687c.515.52 1.078.98 1.687 1.387a11.085 11.085 0 006.18 1.883zm-32.442-33.464a10.075 10.075 0 003.86-.77 10.107 10.107 0 001.746-.93 10.256 10.256 0 002.785-2.785c.367-.55.676-1.132.93-1.746a10.075 10.075 0 00.574-5.828 9.962 9.962 0 00-.574-1.89 10.107 10.107 0 00-.93-1.747c-.371-.55-.79-1.058-1.258-1.527a10.126 10.126 0 00-5.164-2.762 10.075 10.075 0 00-3.937 0 10.126 10.126 0 00-5.164 2.762 10.126 10.126 0 00-2.762 5.164 10.13 10.13 0 00-.192 1.969 9.962 9.962 0 00.766 3.86 10.126 10.126 0 003.715 4.53c.55.368 1.133.676 1.746.93a10.134 10.134 0 003.86.77zm-32.441-33.465a9.25 9.25 0 003.48-.691 9.075 9.075 0 004.082-3.352 9.044 9.044 0 001.355-3.277 9.011 9.011 0 000-3.547 8.959 8.959 0 00-.515-1.707 9.221 9.221 0 00-.84-1.575 9.1 9.1 0 00-1.132-1.375 8.872 8.872 0 00-1.375-1.132 9.095 9.095 0 00-1.575-.84 8.97 8.97 0 00-3.48-.692 8.97 8.97 0 00-3.48.691 8.92 8.92 0 00-1.57.84 8.902 8.902 0 00-1.38 1.133 9.1 9.1 0 00-1.133 1.375 9.221 9.221 0 00-.84 1.575 9.249 9.249 0 00-.515 1.707 8.982 8.982 0 00-.176 1.773c0 .598.059 1.188.172 1.774a9.077 9.077 0 008.922 7.32zm-32.441-33.465c.53 0 1.058-.05 1.578-.152a8.217 8.217 0 001.52-.461c.491-.2.956-.45 1.398-.746a7.985 7.985 0 001.23-1.004 8.164 8.164 0 001.008-1.223c.293-.441.543-.91.746-1.398a8.224 8.224 0 00.621-3.098 8.22 8.22 0 00-.156-1.578 8.309 8.309 0 00-.461-1.52 8.283 8.283 0 00-.746-1.398 8.17 8.17 0 00-1.008-1.227 7.773 7.773 0 00-1.227-1.004 7.893 7.893 0 00-1.398-.75 7.881 7.881 0 00-1.516-.457 7.949 7.949 0 00-1.578-.156c-.531 0-1.058.055-1.582.156a8.27 8.27 0 00-1.515.461 8.435 8.435 0 00-1.399.75 8.213 8.213 0 00-1.226 1.008 8.188 8.188 0 00-1.004 1.227 8.3 8.3 0 00-.746 1.402 7.881 7.881 0 00-.457 1.516 8.14 8.14 0 00.465 4.668c.203.488.453.953.745 1.394.297.438.63.848 1.004 1.223a8.224 8.224 0 002.618 1.75c.488.203.992.355 1.511.457.52.105 1.043.16 1.575.16zm-32.426-33.453c.46 0 .922-.043 1.379-.133a7.017 7.017 0 002.543-1.055 7.033 7.033 0 001.95-1.953c.257-.383.475-.793.651-1.218a7.084 7.084 0 00.54-2.707 7.392 7.392 0 00-.137-1.375 7.147 7.147 0 00-1.06-2.547 7.003 7.003 0 00-1.952-1.95 6.878 6.878 0 00-1.219-.648 6.853 6.853 0 00-1.328-.402 7.081 7.081 0 00-2.758.004 7.19 7.19 0 00-1.324.402c-.426.18-.832.398-1.219.656a7.003 7.003 0 00-2.597 3.176c-.176.43-.31.871-.399 1.324a7.14 7.14 0 00.004 2.758 7.035 7.035 0 005.547 5.535 6.8 6.8 0 001.379.133zm324.789 237.254a15.146 15.146 0 00-5.824 1.152 15.03 15.03 0 00-2.63 1.403 15.098 15.098 0 00-2.308 1.89 15.062 15.062 0 00-1.894 2.3 15.334 15.334 0 00-1.41 2.63 15.414 15.414 0 00-.872 2.851 15.146 15.146 0 00-.008 5.938 15.213 15.213 0 002.262 5.488 15.093 15.093 0 004.191 4.203 14.894 14.894 0 002.626 1.41 15.1 15.1 0 005.82 1.172 15.142 15.142 0 005.824-1.144c.922-.38 1.8-.848 2.633-1.399a15.307 15.307 0 004.207-4.187 15.173 15.173 0 002.29-5.477c.194-.98.296-1.968.3-2.968 0-1-.094-1.993-.285-2.973-.196-.98-.48-1.938-.86-2.86a15.679 15.679 0 00-1.402-2.64 15.56 15.56 0 00-1.89-2.313 15.383 15.383 0 00-2.31-1.898 14.928 14.928 0 00-2.628-1.41 15 15 0 00-2.86-.871 14.9 14.9 0 00-2.972-.297zm-32.5-3.043c.933 0 1.855-.09 2.77-.27a14.27 14.27 0 005.12-2.12c.774-.52 1.493-1.11 2.149-1.766.66-.66 1.25-1.38 1.765-2.153a14 14 0 001.313-2.457 14.06 14.06 0 001.079-5.434c0-.933-.09-1.855-.274-2.769-.18-.914-.45-1.8-.809-2.664a13.93 13.93 0 00-1.312-2.453 14.147 14.147 0 00-6.375-5.227 14.45 14.45 0 00-2.664-.808 14.314 14.314 0 00-5.54.004c-.914.183-1.804.453-2.664.812a14.172 14.172 0 00-6.367 5.234 14.123 14.123 0 00-2.117 5.122 14.314 14.314 0 000 5.539c.184.914.453 1.8.809 2.664.355.86.793 1.68 1.312 2.453a13.889 13.889 0 001.766 2.148c.66.66 1.375 1.25 2.152 1.766a14.211 14.211 0 005.117 2.113c.914.18 1.84.27 2.77.266zm-32.442-33.45a13.184 13.184 0 005.043-1.003 13.005 13.005 0 002.278-1.215 13.155 13.155 0 003.633-3.637 13.146 13.146 0 002.218-7.316c0-.867-.082-1.723-.25-2.57a13.673 13.673 0 00-.75-2.473 13.436 13.436 0 00-1.218-2.278 13.367 13.367 0 00-1.637-1.996 13.29 13.29 0 00-4.273-2.855 13.718 13.718 0 00-2.473-.75 13.18 13.18 0 00-2.57-.25 13.229 13.229 0 00-5.04 1c-.8.332-1.558.738-2.277 1.219a13.172 13.172 0 00-4.852 5.91 13.184 13.184 0 00.004 10.098 13.2 13.2 0 001.223 2.28 13.234 13.234 0 003.652 3.637c.723.48 1.489.883 2.29 1.215.8.328 1.628.574 2.48.742.851.164 1.71.247 2.578.243zm-32.41-33.464a12.198 12.198 0 006.75-2.047 12.222 12.222 0 003.352-3.352 12.186 12.186 0 002.047-6.75 12.16 12.16 0 00-9.781-11.918 12.341 12.341 0 00-4.739 0c-.781.157-1.543.387-2.281.692a12.17 12.17 0 00-2.098 1.125c-.664.441-1.277.945-1.843 1.511a11.965 11.965 0 00-1.508 1.84 12.16 12.16 0 001.504 15.344c.566.567 1.18 1.07 1.843 1.512a12.198 12.198 0 004.383 1.813c.781.156 1.57.23 2.371.23zm-32.441-33.45c.73 0 1.453-.07 2.172-.21a11.546 11.546 0 002.093-.633 11.246 11.246 0 003.618-2.41c.515-.52.98-1.082 1.386-1.688a11.217 11.217 0 001.668-4.016 11.245 11.245 0 00.004-4.348 11.453 11.453 0 00-.633-2.093 11.246 11.246 0 00-1.027-1.926 11.058 11.058 0 00-1.387-1.691 11.304 11.304 0 00-1.687-1.387 10.98 10.98 0 00-1.926-1.027 11.129 11.129 0 00-6.437-.64c-.72.144-1.414.355-2.09.636a11.014 11.014 0 00-3.617 2.414c-.516.516-.98 1.078-1.387 1.688-.406.609-.75 1.25-1.031 1.925a11.507 11.507 0 00-.633 2.09c-.14.719-.215 1.442-.215 2.176 0 .73.074 1.457.215 2.176a11.217 11.217 0 001.668 4.015 11.058 11.058 0 003.078 3.075c.61.406 1.25.75 1.926 1.03.68.278 1.375.49 2.093.634.72.14 1.442.21 2.176.21zm-32.414-33.464a10.134 10.134 0 005.605-1.7c.551-.37 1.059-.789 1.528-1.257a10.126 10.126 0 002.762-5.164 10.074 10.074 0 000-3.938 10.126 10.126 0 00-2.762-5.164 10.126 10.126 0 00-5.164-2.762 10.075 10.075 0 00-5.828.574 10.126 10.126 0 00-4.532 3.715 10.146 10.146 0 00-.93 1.746 10.134 10.134 0 00-.77 3.86 10.075 10.075 0 00.77 3.86 10.1 10.1 0 00.93 1.745 10.256 10.256 0 002.785 2.785c.551.368 1.133.676 1.746.93a10.075 10.075 0 003.86.77zm-32.442-33.465a9.25 9.25 0 003.48-.691 9.205 9.205 0 004.083-3.352c.328-.496.61-1.02.84-1.57a9.34 9.34 0 00.515-1.707 9.011 9.011 0 000-3.547 9.25 9.25 0 00-.515-1.707 9.504 9.504 0 00-.84-1.575 9.1 9.1 0 00-1.133-1.375 8.902 8.902 0 00-1.379-1.132 8.92 8.92 0 00-1.57-.84 8.97 8.97 0 00-3.48-.692 8.97 8.97 0 00-3.48.691 9.095 9.095 0 00-1.575.84 8.872 8.872 0 00-1.375 1.133 8.955 8.955 0 00-1.973 2.95 8.97 8.97 0 00-.691 3.48c0 .598.054 1.188.172 1.774a9.28 9.28 0 00.515 1.707 8.82 8.82 0 00.84 1.574 8.9 8.9 0 001.133 1.379c.422.422.879.8 1.379 1.133.496.328 1.02.609 1.57.84a9.34 9.34 0 001.707.515 9.38 9.38 0 001.777.172zm-32.414-33.465a8.17 8.17 0 001.578-.152 8.217 8.217 0 001.52-.461c.492-.2.957-.45 1.398-.746a7.985 7.985 0 001.23-1.004 8.11 8.11 0 001.009-1.223 8.283 8.283 0 001.21-2.918 8.22 8.22 0 00.157-1.578 7.92 7.92 0 00-.156-1.578 8.015 8.015 0 00-.461-1.52 8.012 8.012 0 00-1.754-2.625 8.065 8.065 0 00-7.297-2.21 8.217 8.217 0 00-1.52.46 8.435 8.435 0 00-1.398.75 8.182 8.182 0 00-2.23 2.235c-.293.445-.543.91-.747 1.402a8.204 8.204 0 00-.457 1.516 8.14 8.14 0 00.465 4.668c.203.488.453.953.746 1.394.297.438.63.848 1.004 1.223.375.37.781.707 1.223 1a7.97 7.97 0 002.906 1.207c.52.105 1.047.16 1.574.16zm-32.457-33.453c.465 0 .926-.043 1.38-.133.456-.09.898-.226 1.327-.402.426-.18.832-.395 1.22-.653a7.003 7.003 0 001.948-1.953c.258-.383.477-.793.653-1.218.175-.43.312-.872.402-1.329a7.081 7.081 0 00-.004-2.753 6.853 6.853 0 00-.402-1.329 6.896 6.896 0 00-.653-1.218 6.805 6.805 0 00-.882-1.07 6.912 6.912 0 00-2.293-1.527 6.9 6.9 0 00-1.325-.403 7.11 7.11 0 00-4.082.406c-.43.18-.836.398-1.218.656a7.003 7.003 0 00-2.598 3.176 7.18 7.18 0 00-.399 1.324c-.09.457-.136.918-.132 1.379 0 .465.043.922.133 1.379.09.453.226.894.402 1.324a6.972 6.972 0 001.531 2.285 7.32 7.32 0 001.07.88c.387.253.793.472 1.223.648.43.175.871.308 1.324.398.453.09.914.137 1.375.133zm324.793 237.254a15.146 15.146 0 00-5.824 1.152 15.064 15.064 0 00-4.937 3.293 15.062 15.062 0 00-1.895 2.3 15.067 15.067 0 00-1.41 2.63 15.122 15.122 0 00-1.168 5.82c0 1 .094 1.988.289 2.969a15.213 15.213 0 004.148 7.797c.703.707 1.473 1.34 2.301 1.894a15.067 15.067 0 002.63 1.41 15.134 15.134 0 008.788.887 15.3 15.3 0 005.488-2.258 15.307 15.307 0 004.207-4.187 15.173 15.173 0 002.586-8.445c.004-1-.09-1.993-.285-2.973a14.882 14.882 0 00-.86-2.86 15.133 15.133 0 00-3.292-4.953 15.159 15.159 0 00-4.938-3.308 14.879 14.879 0 00-2.855-.871 14.9 14.9 0 00-2.973-.297zm-32.441-3.043c.93 0 1.855-.09 2.77-.27a14.45 14.45 0 002.663-.808c.86-.36 1.68-.797 2.454-1.313.777-.52 1.492-1.11 2.152-1.765a14.34 14.34 0 001.766-2.153 14.54 14.54 0 001.312-2.457c.356-.86.625-1.75.805-2.664.183-.914.273-1.836.273-2.77 0-.933-.094-1.855-.273-2.769a14.45 14.45 0 00-.809-2.664c-.36-.86-.797-1.68-1.316-2.453a13.919 13.919 0 00-1.766-2.152 14.383 14.383 0 00-2.152-1.766 14.211 14.211 0 00-10.66-2.113c-.914.183-1.801.453-2.664.812a14.106 14.106 0 00-4.602 3.082 14.147 14.147 0 00-3.879 7.274 13.727 13.727 0 00-.27 2.77 14.22 14.22 0 001.075 5.433 14.117 14.117 0 003.078 4.602 14.106 14.106 0 004.61 3.074 14.058 14.058 0 005.433 1.07zm-32.442-33.45c.864 0 1.72-.085 2.57-.253a12.953 12.953 0 002.47-.75c.8-.328 1.558-.735 2.277-1.215a12.966 12.966 0 001.996-1.64 13.127 13.127 0 002.855-4.273 13.213 13.213 0 001.004-5.04 13.184 13.184 0 00-1.004-5.043 13.417 13.417 0 00-1.214-2.278 13.155 13.155 0 00-3.637-3.632 13.146 13.146 0 00-9.887-1.965c-.848.168-1.672.418-2.473.746a13.29 13.29 0 00-4.273 2.855 13.367 13.367 0 00-1.637 1.996 13.44 13.44 0 00-1.218 2.278 13.077 13.077 0 00-1 5.043c0 .863.082 1.722.25 2.57a13.146 13.146 0 001.969 4.746 13.172 13.172 0 005.91 4.852c.8.332 1.624.582 2.472.75a12.88 12.88 0 002.57.254zm-32.441-33.464a12.198 12.198 0 006.75-2.047 12.18 12.18 0 004.473-5.453 12.11 12.11 0 000-9.297 12.186 12.186 0 00-1.121-2.102 12.222 12.222 0 00-3.352-3.351 12.205 12.205 0 00-2.102-1.125 12.198 12.198 0 00-2.28-.692 12.341 12.341 0 00-4.74 0c-.78.157-1.542.387-2.28.692a12.315 12.315 0 00-3.942 2.636 11.965 11.965 0 00-1.508 1.84 12.16 12.16 0 001.504 15.344c.567.567 1.18 1.07 1.844 1.512a12.198 12.198 0 004.383 1.813c.781.156 1.57.23 2.371.23zm-32.441-33.45c.73 0 1.453-.07 2.172-.21a11.546 11.546 0 002.093-.633 11.246 11.246 0 003.617-2.41c.516-.52.98-1.082 1.387-1.688a11.217 11.217 0 001.668-4.016 11.245 11.245 0 00.004-4.348 10.873 10.873 0 00-.633-2.093 11.246 11.246 0 00-1.027-1.926 11.057 11.057 0 00-1.387-1.691 11.304 11.304 0 00-1.687-1.387c-.606-.406-1.25-.75-1.926-1.027a11.129 11.129 0 00-6.438-.64c-.718.144-1.414.355-2.09.636a11.014 11.014 0 00-3.617 2.414 11.068 11.068 0 00-2.414 3.613 11.217 11.217 0 00-.636 2.09 11.267 11.267 0 00-.215 2.176c0 .73.074 1.453.215 2.172a11.102 11.102 0 003.043 5.7 11.23 11.23 0 003.61 2.418c.675.276 1.37.491 2.089.632.715.144 1.441.219 2.172.219zm-32.442-33.464c.66 0 1.317-.067 1.965-.196a10.072 10.072 0 007.355-6.035 9.962 9.962 0 00.766-3.86 9.962 9.962 0 00-.766-3.86 10.126 10.126 0 00-2.187-3.272 10 10 0 00-1.531-1.254 10 10 0 00-3.637-1.508 10.065 10.065 0 00-1.965-.195c-.664 0-1.32.066-1.969.195a10 10 0 00-3.636 1.508 10.026 10.026 0 00-3.715 4.528 9.962 9.962 0 00-.574 1.89 9.84 9.84 0 00-.196 1.969c0 .664.063 1.32.196 1.969.129.648.32 1.28.574 1.89a9.995 9.995 0 002.184 3.273c.468.47.98.887 1.53 1.258.552.368 1.134.676 1.743.93a10 10 0 001.894.574c.649.13 1.305.196 1.97.196zm-32.441-33.465a9.04 9.04 0 001.773-.176 9.21 9.21 0 001.703-.516 9.095 9.095 0 001.575-.843 9.106 9.106 0 001.379-1.13 9.106 9.106 0 001.968-2.948 9.056 9.056 0 00.52-5.254 8.97 8.97 0 00-.52-1.707 9.075 9.075 0 00-3.348-4.082 8.82 8.82 0 00-1.574-.84 8.933 8.933 0 00-3.476-.692 8.933 8.933 0 00-3.48.691 8.82 8.82 0 00-1.575.84 9.075 9.075 0 00-3.867 5.79 8.982 8.982 0 000 3.547c.113.586.285 1.156.516 1.707a9.106 9.106 0 003.348 4.086 9.53 9.53 0 001.573.84 9.303 9.303 0 001.707.515c.586.113 1.18.172 1.778.172zm-32.446-33.465c.532 0 1.06-.05 1.583-.152a8.179 8.179 0 001.515-.461c.492-.2.961-.45 1.403-.746a8.182 8.182 0 002.234-2.227 8.031 8.031 0 001.21-2.918 7.92 7.92 0 00.157-1.578 7.92 7.92 0 00-.156-1.578 8.003 8.003 0 00-1.207-2.918 7.954 7.954 0 00-2.23-2.23 8.003 8.003 0 00-2.918-1.207 7.92 7.92 0 00-1.579-.157 8.22 8.22 0 00-1.578.156 8.217 8.217 0 00-1.52.461 8.593 8.593 0 00-1.398.75 8.182 8.182 0 00-2.226 2.235 8.179 8.179 0 00-1.207 2.918 8.287 8.287 0 00-.153 1.582 8.143 8.143 0 001.367 4.48 8.114 8.114 0 003.618 2.973c.492.203.996.355 1.515.457.52.105 1.043.16 1.57.16zm-32.425-33.453a7.11 7.11 0 001.379-.133 7.097 7.097 0 003.617-1.933 7.161 7.161 0 001.531-2.293c.176-.43.309-.872.399-1.329a7.075 7.075 0 00-3.008-7.25 6.912 6.912 0 00-1.223-.648 6.9 6.9 0 00-1.324-.402 7.14 7.14 0 00-2.758.004 7.01 7.01 0 00-2.547 1.058 6.91 6.91 0 00-1.066.879 7.228 7.228 0 00-.88 1.074 6.912 6.912 0 00-.648 1.223 6.9 6.9 0 00-.402 1.324 7.14 7.14 0 00.004 2.758 7.035 7.035 0 005.55 5.535c.454.09.915.137 1.376.133zm0 0"/></clipPath><linearGradient x1="0" gradientTransform="rotate(-90 734.074 733.42) scale(4.92458)" y1="128" x2="297.891" gradientUnits="userSpaceOnUse" y2="128" id="f"><stop stop-color="#5DD1E6" offset="0"/><stop stop-color="#5DD1E6" offset=".008"/><stop stop-color="#5DD1E5" offset=".016"/><stop stop-color="#5CD1E4" offset=".023"/><stop stop-color="#5CD1E3" offset=".031"/><stop stop-color="#5CD0E3" offset=".039"/><stop stop-color="#5CD0E2" offset=".047"/><stop stop-color="#5BD0E1" offset=".055"/><stop stop-color="#5BD0E1" offset=".063"/><stop stop-color="#5BD0E0" offset=".07"/><stop stop-color="#5BD0DF" offset=".078"/><stop stop-color="#5AD0DE" offset=".086"/><stop stop-color="#5ACFDE" offset=".094"/><stop stop-color="#5ACFDD" offset=".102"/><stop stop-color="#5ACFDC" offset=".109"/><stop stop-color="#59CFDC" offset=".117"/><stop stop-color="#59CFDB" offset=".125"/><stop stop-color="#59CFDA" offset=".133"/><stop stop-color="#59CFD9" offset=".141"/><stop stop-color="#59CED9" offset=".148"/><stop stop-color="#58CED8" offset=".156"/><stop stop-color="#58CED7" offset=".164"/><stop stop-color="#58CED7" offset=".172"/><stop stop-color="#58CED6" offset=".18"/><stop stop-color="#57CED5" offset=".188"/><stop stop-color="#57CED4" offset=".195"/><stop stop-color="#57CDD4" offset=".203"/><stop stop-color="#57CDD3" offset=".211"/><stop stop-color="#56CDD2" offset=".219"/><stop stop-color="#56CDD2" offset=".227"/><stop stop-color="#56CDD1" offset=".234"/><stop stop-color="#56CDD0" offset=".242"/><stop stop-color="#55CDCF" offset=".25"/><stop stop-color="#55CCCF" offset=".258"/><stop stop-color="#55CCCE" offset=".266"/><stop stop-color="#55CCCD" offset=".273"/><stop stop-color="#54CCCC" offset=".281"/><stop stop-color="#54CCCC" offset=".289"/><stop stop-color="#54CCCB" offset=".297"/><stop stop-color="#54CCCA" offset=".305"/><stop stop-color="#53CBCA" offset=".313"/><stop stop-color="#53CBC9" offset=".32"/><stop stop-color="#53CBC8" offset=".328"/><stop stop-color="#53CBC7" offset=".336"/><stop stop-color="#52CBC7" offset=".344"/><stop stop-color="#52CBC6" offset=".352"/><stop stop-color="#52CBC5" offset=".359"/><stop stop-color="#52CAC5" offset=".367"/><stop stop-color="#51CAC4" offset=".375"/><stop stop-color="#51CAC3" offset=".383"/><stop stop-color="#51CAC2" offset=".391"/><stop stop-color="#51CAC2" offset=".398"/><stop stop-color="#51CAC1" offset=".406"/><stop stop-color="#50CAC0" offset=".414"/><stop stop-color="#50C9C0" offset=".422"/><stop stop-color="#50C9BF" offset=".43"/><stop stop-color="#50C9BE" offset=".438"/><stop stop-color="#4FC9BD" offset=".445"/><stop stop-color="#4FC9BD" offset=".453"/><stop stop-color="#4FC9BC" offset=".461"/><stop stop-color="#4FC9BB" offset=".469"/><stop stop-color="#4EC8BB" offset=".477"/><stop stop-color="#4EC8BA" offset=".484"/><stop stop-color="#4EC8B9" offset=".492"/><stop stop-color="#4EC8B8" offset=".5"/><stop stop-color="#4DC8B8" offset=".508"/><stop stop-color="#4DC8B7" offset=".516"/><stop stop-color="#4DC8B6" offset=".523"/><stop stop-color="#4DC8B5" offset=".531"/><stop stop-color="#4CC7B5" offset=".539"/><stop stop-color="#4CC7B4" offset=".547"/><stop stop-color="#4CC7B3" offset=".555"/><stop stop-color="#4CC7B3" offset=".563"/><stop stop-color="#4BC7B2" offset=".57"/><stop stop-color="#4BC7B1" offset=".578"/><stop stop-color="#4BC7B0" offset=".586"/><stop stop-color="#4BC6B0" offset=".594"/><stop stop-color="#4AC6AF" offset=".602"/><stop stop-color="#4AC6AE" offset=".609"/><stop stop-color="#4AC6AE" offset=".617"/><stop stop-color="#4AC6AD" offset=".625"/><stop stop-color="#49C6AC" offset=".633"/><stop stop-color="#49C6AB" offset=".641"/><stop stop-color="#49C5AB" offset=".648"/><stop stop-color="#49C5AA" offset=".656"/><stop stop-color="#49C5A9" offset=".664"/><stop stop-color="#48C5A9" offset=".672"/><stop stop-color="#48C5A8" offset=".68"/><stop stop-color="#48C5A7" offset=".688"/><stop stop-color="#48C5A6" offset=".695"/><stop stop-color="#47C4A6" offset=".703"/><stop stop-color="#47C4A5" offset=".711"/><stop stop-color="#47C4A4" offset=".719"/><stop stop-color="#47C4A4" offset=".727"/><stop stop-color="#46C4A3" offset=".734"/><stop stop-color="#46C4A2" offset=".742"/><stop stop-color="#46C4A1" offset=".75"/><stop stop-color="#46C3A1" offset=".758"/><stop stop-color="#45C3A0" offset=".766"/><stop stop-color="#45C39F" offset=".773"/><stop stop-color="#45C39E" offset=".781"/><stop stop-color="#45C39E" offset=".789"/><stop stop-color="#44C39D" offset=".797"/><stop stop-color="#44C39C" offset=".805"/><stop stop-color="#44C29C" offset=".813"/><stop stop-color="#44C29B" offset=".82"/><stop stop-color="#43C29A" offset=".828"/><stop stop-color="#43C299" offset=".836"/><stop stop-color="#43C299" offset=".844"/><stop stop-color="#43C298" offset=".852"/><stop stop-color="#42C297" offset=".859"/><stop stop-color="#42C197" offset=".867"/><stop stop-color="#42C196" offset=".875"/><stop stop-color="#42C195" offset=".883"/><stop stop-color="#42C194" offset=".891"/><stop stop-color="#41C194" offset=".898"/><stop stop-color="#41C193" offset=".906"/><stop stop-color="#41C192" offset=".914"/><stop stop-color="#41C092" offset=".922"/><stop stop-color="#40C091" offset=".93"/><stop stop-color="#40C090" offset=".938"/><stop stop-color="#40C08F" offset=".945"/><stop stop-color="#40C08F" offset=".953"/><stop stop-color="#3FC08E" offset=".961"/><stop stop-color="#3FC08D" offset=".969"/><stop stop-color="#3FBF8D" offset=".977"/><stop stop-color="#3FBF8C" offset=".984"/><stop stop-color="#3EBF8B" offset=".992"/><stop stop-color="#3EBF8A" offset="1"/></linearGradient><linearGradient x1="354.51" gradientTransform="translate(494.758 451.021) scale(1.4412)" y1="207.48" x2="-.01" gradientUnits="userSpaceOnUse" y2="207.48" id="i"><stop stop-color="#CBEDDF" offset="0"/><stop stop-color="#CBEDDF" offset=".125"/><stop stop-color="#CAECDE" offset=".141"/><stop stop-color="#C9EBDE" offset=".156"/><stop stop-color="#C9EADD" offset=".172"/><stop stop-color="#C8EADD" offset=".188"/><stop stop-color="#C7E9DC" offset=".203"/><stop stop-color="#C7E8DC" offset=".219"/><stop stop-color="#C6E8DB" offset=".234"/><stop stop-color="#C5E7DB" offset=".25"/><stop stop-color="#C5E6DA" offset=".266"/><stop stop-color="#C4E6DA" offset=".281"/><stop stop-color="#C4E5D9" offset=".297"/><stop stop-color="#C3E5D9" offset=".313"/><stop stop-color="#C2E4D8" offset=".328"/><stop stop-color="#C2E3D8" offset=".344"/><stop stop-color="#C1E3D8" offset=".359"/><stop stop-color="#C1E2D7" offset=".375"/><stop stop-color="#C0E1D7" offset=".391"/><stop stop-color="#BFE1D6" offset=".406"/><stop stop-color="#BFE0D6" offset=".422"/><stop stop-color="#BEDFD5" offset=".438"/><stop stop-color="#BDDFD5" offset=".453"/><stop stop-color="#BDDED4" offset=".469"/><stop stop-color="#BCDDD4" offset=".484"/><stop stop-color="#BCDDD3" offset=".5"/><stop stop-color="#BBDCD3" offset=".516"/><stop stop-color="#BADBD2" offset=".531"/><stop stop-color="#BADBD2" offset=".547"/><stop stop-color="#B9DAD1" offset=".563"/><stop stop-color="#B8D9D1" offset=".578"/><stop stop-color="#B8D9D0" offset=".594"/><stop stop-color="#B7D8D0" offset=".609"/><stop stop-color="#B7D8D0" offset=".625"/><stop stop-color="#B6D7CF" offset=".641"/><stop stop-color="#B5D6CF" offset=".656"/><stop stop-color="#B5D6CE" offset=".672"/><stop stop-color="#B4D5CE" offset=".688"/><stop stop-color="#B4D4CD" offset=".703"/><stop stop-color="#B3D4CD" offset=".719"/><stop stop-color="#B2D3CC" offset=".734"/><stop stop-color="#B2D2CC" offset=".75"/><stop stop-color="#B1D2CB" offset=".766"/><stop stop-color="#B0D1CB" offset=".781"/><stop stop-color="#B0D0CA" offset=".797"/><stop stop-color="#AFD0CA" offset=".813"/><stop stop-color="#AFCFC9" offset=".828"/><stop stop-color="#AECEC9" offset=".844"/><stop stop-color="#ADCEC9" offset=".859"/><stop stop-color="#ADCDC8" offset=".875"/><stop stop-color="#ACCCC8" offset=".891"/><stop stop-color="#ABCCC7" offset=".906"/><stop stop-color="#ABCBC7" offset=".922"/><stop stop-color="#AACAC6" offset=".938"/><stop stop-color="#AACAC6" offset=".953"/><stop stop-color="#A9C9C5" offset=".969"/><stop stop-color="#A8C9C5" offset=".984"/><stop stop-color="#A8C8C4" offset="1"/></linearGradient></defs><g clip-path="url(#a)"><g clip-path="url(#b)"><g clip-path="url(#c)" transform="translate(119 16)"><g clip-path="url(#d)"><g clip-path="url(#e)"><path fill="url(#f)" d="M.652 1467.492h1260.696V.504H.652zm0 0"/></g></g></g></g></g><g clip-path="url(#g)"><g clip-path="url(#h)"><path fill="url(#i)" d="M494.742 451.008v598.058h510.942V451.008zm0 0"/></g></g><path d="M1049.195 449.975v119.672H929.523l-179.53 179.531 179.53 179.516h119.672v119.687h-143.61c-16.96 0-31.42-5.984-43.39-17.953L640.79 809.022h-70.312v239.36H450.789V449.974h119.688v239.36h70.312l221.406-221.407c11.97-11.969 26.43-17.953 43.39-17.953zm0 0" fill="#fff"/></svg>